<!-- Copyright (c) Microsoft. All rights reserved. --> 

<svg xmlns="http://www.w3.org/2000/svg" viewBox="-24212 -24682.566 15.066 16"><defs><style>.a{fill:#7065fd;}</style></defs><path class="a" d="M7.467,16c-.667-.4-1.2-.8-1.867-1.2a8.56,8.56,0,0,1-1.733-1.333A15.211,15.211,0,0,1,2.4,12c-.4-.533-.933-1.2-1.333-1.733a5.261,5.261,0,0,1-.8-2A11.742,11.742,0,0,1,0,6V2H1.2c.4,0,.8-.133,1.2-.133a4.237,4.237,0,0,0,1.2-.4A7.917,7.917,0,0,0,4.667.933,6.228,6.228,0,0,1,6,.267,4.793,4.793,0,0,1,7.467,0h.8a5.775,5.775,0,0,1,.667.133A2.253,2.253,0,0,1,9.6.4c.267.133.4.267.667.4a5.4,5.4,0,0,0,1.2.667l1.2.4a3.691,3.691,0,0,0,1.2.133h1.2V6A13.137,13.137,0,0,1,14.8,8.267a8.95,8.95,0,0,1-.8,2A8.56,8.56,0,0,1,12.667,12a5.684,5.684,0,0,1-1.6,1.467A19.6,19.6,0,0,0,9.333,14.8C8.8,15.2,8.133,15.6,7.467,16ZM1.067,2.933V6a7.869,7.869,0,0,0,.267,1.867A9.258,9.258,0,0,0,2,9.6a11.122,11.122,0,0,0,1.067,1.6A6.321,6.321,0,0,0,4.4,12.533c.533.4.933.8,1.467,1.2s1.067.667,1.6,1.067a11.122,11.122,0,0,0,1.6-1.067,12.509,12.509,0,0,0,1.6-1.2L12,11.2a6.7,6.7,0,0,0,1.067-1.6,6.7,6.7,0,0,0,.667-1.733A9,9,0,0,0,14,6V2.933a13.137,13.137,0,0,1-2.267-.267,5.5,5.5,0,0,1-2-.933A3.992,3.992,0,0,0,8.667,1.2a3.691,3.691,0,0,0-1.2-.133A2.6,2.6,0,0,0,6.4,1.2c-.267.133-.8.267-1.067.4A6.416,6.416,0,0,1,3.2,2.667,6.237,6.237,0,0,1,1.067,2.933ZM6.933,12H8V5.067H6.933Zm0-9.067H8V4H6.933Z" transform="translate(-24212 -24682.566)"/></svg>
