<!-- Copyright (c) Microsoft. All rights reserved. -->

<svg xmlns="http://www.w3.org/2000/svg" viewBox="0 0 31.441 23.892">
  <title>Chiller </title>
  <g id="Layer_2" data-name="Layer 2">
    <g id="Random">
	    <path d="M15.97,5.27a3.445,3.445,0,0,1,.288-1.2H14.842V5.133Z" fill="none"/>
	    <path d="M17.361,5.014a2.1,2.1,0,0,1,1.05-1.174,4.263,4.263,0,0,1,1.928-.391h.451a2.17,2.17,0,0,0-1.751-.3,2.22,2.22,0,0,0-2.045,1.962Z" fill="none"/><polygon points="11.503 4.725 11.503 1.894 12.938 1.894 12.938 1.317 10.597 1.072 10.608 4.616 11.503 4.725" fill="none"/>
	    <rect x="12.51" y="2.901" width="1.326" height="1.792" fill="none"/>
	    <path d="M20.319,4.455a3.24,3.24,0,0,0-1.431.271,1.116,1.116,0,0,0-.571.6l-.075.406v.765c.369,0,1.166,0,1.9-.008a1.973,1.973,0,0,1,1.4.55,1.964,1.964,0,0,1,.447,1.079v1.914l2.04.453c0-.981-.013-3.092-.006-4.093a1.466,1.466,0,0,0-.481-1,3.362,3.362,0,0,0-2.12-.938Z" fill="none"/><path d="M29,13.148h-.02c-.8,0-1.5,1.115-1.531,2.45a3.324,3.324,0,0,0,.457,1.844,1.3,1.3,0,0,0,.978.673c.833.028,1.519-1.1,1.55-2.45a3.324,3.324,0,0,0-.457-1.844A1.3,1.3,0,0,0,29,13.148Z" fill="none"/><polygon points="16.656 11.413 17.235 11.225 17.235 6.092 16.656 6.249 16.656 11.413" fill="none"/>
	    <path d="M20.148,7.493c-1.055.01-1.6.012-1.906.007V9.2l2.74.609V8.144a1.037,1.037,0,0,0-.213-.462A1.043,1.043,0,0,0,20.148,7.493Z" fill="none"/><polygon points="24.348 11.584 18.242 10.227 18.242 11.696 21.108 12.342 21.108 12.342 24.348 11.584" fill="none"/><path d="M23.848,15.045h-.02c-.8,0-1.5,1.115-1.531,2.45a3.324,3.324,0,0,0,.457,1.844,1.3,1.3,0,0,0,.978.673c.829.057,1.519-1.1,1.551-2.45a3.325,3.325,0,0,0-.457-1.844A1.3,1.3,0,0,0,23.848,15.045Z" fill="none"/><path d="M20.03,13.131l-3.189-.719-.668.217L3.252,9.654c-.618.036-1.171.951-1.195,2.01a2.8,2.8,0,0,0,.378,1.53,1.035,1.035,0,0,0,.772.54v.028l16.719,5.573V13.759A1.953,1.953,0,0,1,20.03,13.131Z" fill="none"/><path d="M29.409,19.054a1.9,1.9,0,0,1-.505.069h-.043a2.217,2.217,0,0,1-1.8-1.14,4.344,4.344,0,0,1-.614-2.407c.045-1.937,1.155-3.434,2.537-3.434h.043a1.874,1.874,0,0,1,.386.063v-.6c0-.014,0-.081.007-.173l-8.4,1.969a.754.754,0,0,0-.08.347v9.087a88.793,88.793,0,0,0,8.3-3.22,2.234,2.234,0,0,0,.176-.146c-.014.021,0-.1,0-.17ZM23.752,21.02h-.043a2.217,2.217,0,0,1-1.8-1.14,4.344,4.344,0,0,1-.614-2.407c.046-1.956,1.188-3.439,2.58-3.433a2.216,2.216,0,0,1,1.8,1.14,4.345,4.345,0,0,1,.614,2.407C26.243,19.522,25.133,21.02,23.752,21.02Z" fill="none"/><path d="M2.746,14.668a2.134,2.134,0,0,1-1.16-.934A3.775,3.775,0,0,1,1.05,11.64c.038-1.621.954-2.86,2.09-2.976V8.572l-2.1.231c0,.1-.022.269-.02.336v6.613c.631-.1,1.892-.323,3.254-.575l-1.526-.509Z" fill="none"/><polygon points="12.726 9.278 14.037 9.585 14.037 7.451 12.726 7.266 12.726 9.278" fill="none"/><path d="M15.65,6.246,9.6,5.508,9.591,1l-5.443,0V8.828l11.5,2.648Zm-3.93,3.831V6.108l3.324.468v4.277Z" fill="none"/><path d="M31.44,15.689a4.345,4.345,0,0,0-.614-2.407,2.911,2.911,0,0,0-.412-.509V11.628s.014-.275.014-.55a.7.7,0,0,0-.294-.6.8.8,0,0,0-.69-.085l-2.837.664-1.571-.349c0-.831-.015-3.224-.007-4.311a2.413,2.413,0,0,0-.774-1.712,4.464,4.464,0,0,0-2.3-1.17,1.525,1.525,0,0,0-.5-.82,3.2,3.2,0,0,0-2.549-.541,3.329,3.329,0,0,0-1.968.914h-2.1V1.894h-.9V.41L10,0H3.141V7.559L.893,7.807a1.051,1.051,0,0,0-.7.538,1.744,1.744,0,0,0-.179.809v6.817a.7.7,0,0,0,.425.81.4.4,0,0,0,.151.022c.308,0,1.3-.146,5.512-.943l-.015-.078L19.925,20.4v2.657a.7.7,0,0,0,.429.811.514.514,0,0,0,.181.029,3.743,3.743,0,0,0,.5-.056c1.317-.2,7.854-2.982,8.658-3.332a1.62,1.62,0,0,0,.588-.54,1.76,1.76,0,0,0,.138-.641v-.9A4.065,4.065,0,0,0,31.44,15.689Zm-2.557,2.426a1.3,1.3,0,0,1-.978-.673,3.324,3.324,0,0,1-.457-1.844c.031-1.335.729-2.45,1.531-2.45H29a1.3,1.3,0,0,1,.977.673,3.324,3.324,0,0,1,.457,1.844C30.4,17.011,29.717,18.143,28.883,18.115ZM18.242,11.7V10.227l6.106,1.357-3.24.759h0Zm-1.007-5.6v5.133l-.579.188V6.249ZM20.982,9.8,18.242,9.2V7.5c.3,0,.852,0,1.906-.007a1.043,1.043,0,0,1,.621.188,1.037,1.037,0,0,1,.213.462Zm3.04-3.416c-.007,1,0,3.112.006,4.093l-2.04-.453V8.114a1.964,1.964,0,0,0-.447-1.079,1.973,1.973,0,0,0-1.4-.55c-.735.007-1.532.011-1.9.008V5.729l.075-.406a1.116,1.116,0,0,1,.571-.6,3.24,3.24,0,0,1,1.431-.271h1.1a3.362,3.362,0,0,1,2.12.938A1.466,1.466,0,0,1,24.022,6.389ZM19.04,3.151a2.17,2.17,0,0,1,1.751.3H20.34a4.263,4.263,0,0,0-1.928.391,2.1,2.1,0,0,0-1.05,1.174l-.367.1A2.22,2.22,0,0,1,19.04,3.151Zm-2.782.922a3.445,3.445,0,0,0-.288,1.2l-1.127-.138V4.074ZM13.836,2.9V4.693H12.51V2.9Zm-.9-1.584v.577H11.5V4.725l-.9-.109L10.6,1.072Zm-8.79-.311L9.591,1l.013,4.5,6.046.738v5.23L4.148,8.828ZM1.018,15.752V9.139c0-.068.015-.238.02-.336l2.1-.231v.092C2,8.781,1.088,10.019,1.05,11.64a3.775,3.775,0,0,0,.535,2.093,2.134,2.134,0,0,0,1.16.934h0l1.526.509C2.909,15.429,1.649,15.654,1.018,15.752Zm2.189-1.991v-.028a1.035,1.035,0,0,1-.772-.54,2.8,2.8,0,0,1-.378-1.53c.024-1.059.577-1.974,1.195-2.01l12.921,2.975.668-.217,3.189.719a1.953,1.953,0,0,0-.1.628v5.575Zm26.2,5.7a2.234,2.234,0,0,1-.176.146,88.793,88.793,0,0,1-8.3,3.22V13.745a.754.754,0,0,1,.08-.347l8.4-1.969c0,.093-.006.159-.007.173v.6a1.874,1.874,0,0,0-.386-.063h-.043c-1.382,0-2.492,1.5-2.537,3.434a4.344,4.344,0,0,0,.614,2.407,2.217,2.217,0,0,0,1.8,1.14H28.9a1.9,1.9,0,0,0,.505-.069V19.3C29.4,19.366,29.392,19.486,29.406,19.466Z" fill="#afb9c3"/><path d="M23.87,14.039c-1.392-.006-2.534,1.477-2.58,3.433a4.344,4.344,0,0,0,.614,2.407,2.217,2.217,0,0,0,1.8,1.14h.043c1.381,0,2.492-1.5,2.537-3.434a4.345,4.345,0,0,0-.614-2.407A2.216,2.216,0,0,0,23.87,14.039Zm-.139,5.974a1.3,1.3,0,0,1-.978-.673A3.324,3.324,0,0,1,22.3,17.5c.031-1.335.73-2.45,1.531-2.45h.02a1.3,1.3,0,0,1,.977.673,3.325,3.325,0,0,1,.457,1.844C25.25,18.908,24.56,20.069,23.731,20.012Z" fill="#afb9c3"/><path d="M11.719,6.108v3.969l3.324.776V6.576Zm2.317,3.477-1.311-.307V7.266l1.311.185Z" fill="#afb9c3"/>
    </g>
  </g>
</svg>
