<!-- Copyright (c) Microsoft. All rights reserved. -->
<svg xmlns="http://www.w3.org/2000/svg" viewBox="-20448.338 -21793.842 18.361 19.59">
  <g id="Group_121" data-name="Group 121" transform="translate(-20448.338 -21793.842)">
    <path id="Path_421" data-name="Path 421" class="cls-1" d="M16.346,3.458,11.211.556a4.121,4.121,0,0,0-4.046,0L2.03,3.458A3.989,3.989,0,0,0,0,6.909v5.819a3.966,3.966,0,0,0,2.03,3.437l5.135,2.917a4.162,4.162,0,0,0,2.016.534,4.063,4.063,0,0,0,2.03-.534l5.135-2.917a3.952,3.952,0,0,0,2.016-3.437V6.909A3.945,3.945,0,0,0,16.346,3.458ZM8.077,17.1,3.134,14.288a1.8,1.8,0,0,1-.927-1.559V6.909A1.8,1.8,0,0,1,3.119,5.35l4.958-2.8Zm8.092-4.375a1.8,1.8,0,0,1-.912,1.559l-4.958,2.8V10.894h5.87Zm0-4H10.284V2.534l4.958,2.8a1.782,1.782,0,0,1,.912,1.559V8.728Z" transform="translate(0 -0.025)"/>
  </g>
</svg>
