<!-- Copyright (c) Microsoft. All rights reserved. -->

<svg xmlns="http://www.w3.org/2000/svg" viewBox="-20836 -16624 89.406 72">
  <g data-name="Group 442" transform="translate(-20119 -16402)">
    <g data-name="Group 335" transform="translate(-717 -222)">
      <path data-name="Path 733" class="cls-1" d="M47.473,37.1v6.33H53.8V55.3H65.67v5.538H89.407v6.33H65.67V73.5H23.736V67.17H0v-6.33H23.736v-6.33H35.6V43.434h6.33V37.1H0V7.038c0-.791,0-1.582.791-1.582s.791-1.582,1.582-1.582.791-.791,1.582-1.582A2.907,2.907,0,0,1,6.33,1.5H83.868a2.907,2.907,0,0,1,2.374.791l.791.791,1.582,1.582a2.907,2.907,0,0,1,.791,2.374V37.1ZM6.33,30.775H83.868V7.038H6.33ZM47.473,60.841V48.973h-6.33V60.841H30.066v6.33H60.132v-6.33Zm26.9-47.473a2.8,2.8,0,0,1,3.165,3.165,3.176,3.176,0,1,1-6.33,0,2.8,2.8,0,0,1,3.165-3.165Z" transform="translate(0 -1.5)"/>
    </g>
  </g>
</svg>
