<!-- Copyright (c) Microsoft. All rights reserved. -->

<svg xmlns="http://www.w3.org/2000/svg" viewBox="0 0 31.544 15.589"><g data-name="Layer 2"><g><polygon points="1.99 11.351 2 11.351 2 10.351 1.99 10.351 1 10.351 1 11.351 1.99 11.351" fill="none"/><rect x="6.615" y="10.351" width="1" height="1" fill="none"/><path d="M9.175,12.647a3.59,3.59,0,0,1,.774-2.116,1.473,1.473,0,0,1,1.067-.449,1.809,1.809,0,0,1,1.475.674V2.932a.073.073,0,0,0-.073-.073H3.712L2.625,3.919H7.837a1.042,1.042,0,0,1,1.069,1.01V7.766a.98.98,0,0,1-1,.951H2.116a1.091,1.091,0,0,1-.125-.024v.657h.3A.708.708,0,0,1,3,10.059v.385H5.615v-.385a.708.708,0,0,1,.708-.708H7.908a.708.708,0,0,1,.708.708v1.584a.708.708,0,0,1-.708.708H6.323a.708.708,0,0,1-.708-.708v-.2H3v.2a.708.708,0,0,1-.708.708h-.3v.3Zm1.522-8.1h1V8.412h-1Z" fill="none"/><path d="M3.852,14.446a1.286,1.286,0,0,0,1.122-.8H2.726A1.283,1.283,0,0,0,3.852,14.446Z" fill="none"/><path d="M12.538,1.858a.956.956,0,0,1,.955.954V6.461H30.545V1.04c-.009-.021-.08-.039-.129-.04H4.8l0,.857h7.733Z" fill="none"/><path d="M12.344,12.361c0-.129-.216-1.278-1.115-1.278-1.149,0-1.08,1.7-1.076,2.06a.736.736,0,0,1-.063.362.331.331,0,0,1-.169.113,1.305,1.305,0,0,0,1.136.829,1.475,1.475,0,0,0,1.3-1.6h0Zm-.862.991c-.172,0-.311-.382-.311-.853s.139-.853.311-.853.311.382.311.853S11.653,13.352,11.482,13.352Z" fill="none"/><path d="M2.116,7.768H7.9l.055-2.839c0-.016-.041-.061-.12-.061H2.116a.165.165,0,0,0-.125.051v2.8A.165.165,0,0,0,2.116,7.768Z" fill="none"/><path d="M30.545,7.461H13.492V9.733h7.846A2.047,2.047,0,0,1,22.47,9.37a2.272,2.272,0,0,1,1.859,1.112A2.271,2.271,0,0,1,26.187,9.37a2.051,2.051,0,0,1,1.143.363h3.214Z" fill="none"/><path d="M22.47,10.558a1.036,1.036,0,0,0-.774.422,2.267,2.267,0,0,0-.464,1.167,2.763,2.763,0,0,0-.02.333c0,1.042.576,1.922,1.258,1.922s1.258-.88,1.258-1.922S23.152,10.558,22.47,10.558Zm.462,2.794c-.172,0-.311-.382-.311-.853s.139-.853.311-.853.311.382.311.853S23.1,13.352,22.932,13.352Z" fill="none"/><path d="M28.195,10.733A3.6,3.6,0,0,1,28.587,12h1.958V10.733Z" fill="none"/><path d="M20.451,10.733H13.492v1.1h6.593A3.612,3.612,0,0,1,20.451,10.733Z" fill="none"/><path d="M26.187,10.558c-.682,0-1.258.88-1.258,1.922s.576,1.922,1.258,1.922,1.258-.88,1.258-1.922a2.233,2.233,0,0,0-.667-1.686A.911.911,0,0,0,26.187,10.558Zm.379,2.794c-.172,0-.311-.382-.311-.853s.139-.853.311-.853.311.382.311.853S26.738,13.352,26.566,13.352Z" fill="none"/><path d="M31.256.322A1.217,1.217,0,0,0,30.414,0H4.6c-.8,0-.8.676-.8.931l0,.926H3.712a1.1,1.1,0,0,0-.775.321L1.325,3.79A1.141,1.141,0,0,0,.99,4.6v4.75H.708A.708.708,0,0,0,0,10.059v1.584a.708.708,0,0,0,.708.708H.99v.561a.726.726,0,0,0,.568.7,2.443,2.443,0,0,0,2.294,1.93,2.446,2.446,0,0,0,2.284-1.9h2.63a2.44,2.44,0,0,0,2.291,1.9,2.565,2.565,0,0,0,2.4-2.695h.033v-.021h6.561a2.748,2.748,0,0,0,2.418,2.76,2.272,2.272,0,0,0,1.859-1.112,2.271,2.271,0,0,0,1.859,1.112,2.706,2.706,0,0,0,2.4-2.59h1.991a.984.984,0,0,0,.73-.271.788.788,0,0,0,.231-.545V1.04A.981.981,0,0,0,31.256.322ZM4.8,1H30.415c.049,0,.12.019.129.04V6.461H13.492V2.812a.956.956,0,0,0-.955-.954H4.8ZM27.33,9.733a2.051,2.051,0,0,0-1.143-.363,2.271,2.271,0,0,0-1.859,1.112A2.272,2.272,0,0,0,22.47,9.37a2.047,2.047,0,0,0-1.132.363H13.492V7.461H30.545V9.733ZM1.99,4.919a.165.165,0,0,1,.125-.051H7.837c.079,0,.12.045.12.061L7.9,7.768H2.116a.165.165,0,0,1-.125-.051Zm0,5.431H2v1H1v-1Zm.3,2A.708.708,0,0,0,3,11.643v-.2H5.615v.2a.708.708,0,0,0,.708.708H7.908a.708.708,0,0,0,.708-.708V10.059a.708.708,0,0,0-.708-.708H6.323a.708.708,0,0,0-.708.708v.385H3v-.385a.708.708,0,0,0-.708-.708h-.3V8.693a1.091,1.091,0,0,0,.125.024H7.9a.98.98,0,0,0,1-.951V4.929a1.042,1.042,0,0,0-1.069-1.01H2.625L3.712,2.858h8.707a.073.073,0,0,1,.073.073v7.825a1.809,1.809,0,0,0-1.475-.674,1.473,1.473,0,0,0-1.067.449,3.59,3.59,0,0,0-.774,2.116H1.99v-.3Zm4.323-1v-1h1v1Zm-2.763,3.1a1.283,1.283,0,0,1-1.126-.8H4.974A1.286,1.286,0,0,1,3.852,14.446Zm7.206,0a1.305,1.305,0,0,1-1.136-.829.331.331,0,0,0,.169-.113.736.736,0,0,0,.063-.362c0-.358-.073-2.06,1.076-2.06.9,0,1.111,1.149,1.115,1.278l.012.488h0A1.475,1.475,0,0,1,11.058,14.446Zm2.435-3.713h6.959a3.612,3.612,0,0,0-.366,1.1H13.492ZM22.47,14.4c-.682,0-1.258-.88-1.258-1.922a2.763,2.763,0,0,1,.02-.333,2.267,2.267,0,0,1,.464-1.167,1.036,1.036,0,0,1,.774-.422c.682,0,1.258.88,1.258,1.922S23.152,14.4,22.47,14.4Zm3.717,0c-.682,0-1.258-.88-1.258-1.922s.576-1.922,1.258-1.922a.911.911,0,0,1,.592.236,2.233,2.233,0,0,1,.667,1.686C27.446,13.521,26.87,14.4,26.187,14.4Zm2.4-2.4a3.6,3.6,0,0,0-.392-1.266h2.35V12Z" fill="#afb9c3"/><ellipse cx="11.482" cy="12.499" rx="0.311" ry="0.853" fill="#afb9c3"/><ellipse cx="22.932" cy="12.499" rx="0.311" ry="0.853" fill="#afb9c3"/><ellipse cx="26.566" cy="12.499" rx="0.311" ry="0.853" fill="#afb9c3"/><rect x="10.697" y="4.547" width="1" height="3.865" fill="#afb9c3"/></g></g></svg>
