<!-- Copyright (c) Microsoft. All rights reserved. -->

<svg xmlns="http://www.w3.org/2000/svg" viewBox="0 0 7.261 9.681"><title>Asset 10</title><g id="Layer_2" data-name="Layer 2"><g id="Layer_1-2" data-name="Layer 1"><path d="M.605,0H7.261V9.681H6.656V.605H1.21v2.42h.605V2.42h1.21v.605H4.84V9.681H0V3.025H.605Zm3.63,3.63H.605V9.076h3.63Zm-.605.605V8.471H1.21V4.235ZM2.42,1.815H1.815V1.21H2.42Zm1.21,0H3.025V1.21H3.63Zm.605,0V1.21H4.84v.605Zm1.21,0V1.21h.605v.605Zm0,1.21V2.42h.605v.605Zm0,1.21V3.63h.605v.605Zm0,1.21V4.84h.605v.605Zm0,1.21V6.051h.605v.605Zm0,1.21V7.261h.605v.605Zm0,1.21V8.471h.605v.605Z" fill="#afb9c3"/></g></g></svg>
