<!-- Copyright (c) Microsoft. All rights reserved. -->

<svg xmlns="http://www.w3.org/2000/svg" viewBox="0 0 31.917 24.031"><g data-name="Layer 2"><g><polygon points="12.458 7.748 13.589 8.318 14.664 7.482 15.538 6.802 16.896 5.747 15.764 5.177 14.407 6.232 13.533 6.912 12.458 7.748" fill="none"/><polygon points="13.211 9.247 11.577 8.424 11.577 9.805 13.211 10.558 13.211 9.247" fill="none"/><polygon points="11.13 4.956 11.876 4.372 10.743 3.801 9.98 4.398 11.13 4.956" fill="none"/><polygon points="15.653 7.98 14.211 9.102 14.211 10.372 16.526 8.42 17.357 7.719 17.773 7.367 17.773 6.331 16.527 7.301 15.653 7.98" fill="none"/><polygon points="4.275 11.633 4.636 11.796 4.631 11.353 4.62 10.319 3.313 9.661 3.319 11.112 3.319 11.202 4.275 11.633" fill="none"/><polygon points="9.105 5.085 5.893 7.603 7.021 8.179 10.255 5.643 9.105 5.085" fill="none"/><path d="M20.61,11.352l4.426,2.291.725-.571.867-.683,1.862-1.466-.77-1.56-.865-.349,0,.735-.987-.4v-.71L23.9,8.759l-1.749,1.377-.867.683Zm3.3-.948,1.643.708L24.32,12l-1.59-.773Z" fill="none"/><polygon points="26.747 13.569 25.651 14.431 25.651 16.376 28.307 14.355 28.709 14.05 28.709 13.438 28.709 12.023 27.614 12.886 26.747 13.569" fill="none"/><polygon points="24.651 14.57 19.715 12.015 19.715 13.945 24.651 16.506 24.651 14.57" fill="none"/><polygon points="6.128 8.879 5.022 8.287 4.156 8.966 5.289 9.536 6.128 8.879" fill="none"/><path d="M29.3,14.856l-4.056,3.085-6.531-3.389V11.54H18.8l-.026-.014,1.53-1.2L17.5,8.909l-3.622,3.055-3.3-1.518V7.94h.038L10.6,7.93l1.949-1.516.207-.161v-1.3L7.529,9.051V11.6l.438.163-.015.04a1.6,1.6,0,0,1,.221-.027c.572,0,1.036.277,1.036.618s-.464.618-1.036.618a1.044,1.044,0,0,1-.987-.473l-.657-.244V9.835l-.907.711v.03l.028,2.663a1.461,1.461,0,0,1,.7-.166c.572,0,1.036.277,1.036.618s-.464.618-1.036.618-1.036-.277-1.036-.618a.5.5,0,0,1,.243-.384L3.387,12.33l-1.531,1.2,18.5,9.321,9.705-7.613ZM17.69,10.3l1.011.46-2.6,2.221-1.011-.46Zm-8.883.789c0-.342.464-.618,1.036-.618s1.036.277,1.036.618-.464.618-1.036.618S8.807,11.43,8.807,11.088Zm-1.15,4.131,4.026-3.169,1.011.46L8.667,15.679ZM16.539,19.3c-.572,0-1.036-.277-1.036-.618s.464-.618,1.036-.618,1.036.277,1.036.618S17.111,19.3,16.539,19.3Zm-2.875-1.012L9.511,16.157,13.652,12.9,17.8,15.026Zm5.78,2.421c-.572,0-1.036-.277-1.036-.618s.464-.618,1.036-.618,1.036.277,1.036.618S20.016,20.706,19.444,20.706Zm0-2.953c-.572,0-1.036-.277-1.036-.618s.464-.618,1.036-.618,1.036.277,1.036.618S20.016,17.754,19.444,17.754ZM22.1,19.211l-1.44-.7,1.323-.832,1.5.722Z" fill="none"/><polygon points="13.549 17.103 15.961 15.204 13.766 14.08 11.354 15.978 13.549 17.103" fill="none"/><path d="M9.511,16.157l4.153,2.128,4.141-3.26L13.652,12.9Zm6.45-.953-2.412,1.9-2.195-1.125,2.412-1.9Z" fill="#afb9c3"/><polygon points="11.683 12.05 7.657 15.219 8.667 15.679 12.693 12.51 11.683 12.05" fill="#afb9c3"/><polygon points="18.701 10.759 17.69 10.299 15.09 12.519 16.101 12.979 18.701 10.759" fill="#afb9c3"/><ellipse cx="9.843" cy="11.088" rx="1.036" ry="0.618" fill="#afb9c3"/><ellipse cx="19.444" cy="17.135" rx="1.036" ry="0.618" fill="#afb9c3"/><ellipse cx="19.444" cy="20.088" rx="1.036" ry="0.618" fill="#afb9c3"/><ellipse cx="16.539" cy="18.679" rx="1.036" ry="0.618" fill="#afb9c3"/><path d="M29.709,13.942V11.236l.036-.028-1.3-2.629-1.6-.643L26.836,0l-.983,1.106.013,6.528-2.336.147L21.169,9.639,18.328,8.208l.446-.376V5.586h-.042l.026-.021L15.65,4l-1.9,1.476V4.205h-.043l.023-.018L10.625,2.622,2.32,9.134H2.311v.007L2.3,9.15l.011.006.011,2.694.036.016L0,13.715,20.474,24.031l11.443-8.976Zm-1-.5v.611l-.4.306-2.657,2.021V14.431l1.1-.863.867-.683,1.1-.863Zm-8.995-1.424,4.936,2.555v1.936l-4.936-2.561ZM23.9,8.759l1.964-.123v.71l.987.4,0-.735.865.349.77,1.56L26.628,12.39l-.867.683-.725.571L20.61,11.352l.677-.533.867-.683Zm-6.13-1.392-.417.352-.831.7-2.315,1.953V9.1L15.653,7.98l.874-.68,1.247-.97Zm-6.2,1.057,1.634.823v1.311l-1.634-.753Zm4.188-3.248,1.131.57L15.538,6.8l-.874.679-1.075.836-1.131-.57,1.075-.836.874-.68ZM10.743,3.8l1.133.571-.746.585L9.98,4.4ZM7.021,8.179,5.893,7.6,9.105,5.085l1.15.558Zm-2,.108,1.106.592-.839.658L4.156,8.966ZM3.313,9.661l1.307.658.011,1.034,0,.443-.361-.163L3.319,11.2v-.09ZM20.356,22.852l-18.5-9.321,1.531-1.2,2.167.978a.5.5,0,0,0-.243.384c0,.342.464.618,1.036.618s1.036-.277,1.036-.618-.464-.618-1.036-.618a1.461,1.461,0,0,0-.7.166l-.028-2.663v-.03l.907-.711V12.29l.657.244a1.044,1.044,0,0,0,.987.473c.572,0,1.036-.277,1.036-.618s-.464-.618-1.036-.618a1.6,1.6,0,0,0-.221.027l.015-.04L7.529,11.6V9.051l5.223-4.095v1.3l-.207.161L10.6,7.93l.019.01h-.038v2.506l3.3,1.518L17.5,8.909,20.3,10.322l-1.53,1.2.026.014h-.084v3.012l6.531,3.389L29.3,14.856l.76.383Z" fill="#afb9c3"/><polygon points="20.658 18.511 22.098 19.211 23.484 18.401 21.98 17.679 20.658 18.511" fill="#afb9c3"/><polygon points="25.557 11.112 23.913 10.404 22.73 11.222 24.32 11.995 25.557 11.112" fill="#afb9c3"/></g></g></svg>
