<!-- Copyright (c) Microsoft. All rights reserved. -->

<svg xmlns="http://www.w3.org/2000/svg" viewBox="0 0 15.435 30.058"><g id="Layer_2" data-name="Layer 2"><g id="Random"><polygon points="9.698 7.687 9.698 4.915 10.698 4.346 10.698 7.134 11.976 6.426 11.976 4.578 7.718 2.117 1.826 5.522 7.718 8.784 9.698 7.687" fill="none"/><polygon points="13.609 5.522 12.976 5.156 12.976 5.872 13.609 5.522" fill="none"/><path d="M4.373,10.018,2.507,11v6.2l1.866-.985ZM3.48,15.376l-.639-.887,1.278-.7Zm-.639-2L3.48,11.79l.639.887Z" fill="none"/><polygon points="7.268 18.292 1.826 21.438 7.268 24.45 7.268 18.292" fill="none"/><polygon points="2.15 26.723 5.794 28.588 5.794 24.662 2.15 22.645 2.15 26.723" fill="none"/><polygon points="12.976 6.9 12.976 11.953 11.976 12.521 11.976 7.454 10.698 8.162 10.698 13.162 9.698 13.77 9.698 8.715 8.167 9.563 8.167 17.253 8.167 18.292 8.167 24.45 14.514 20.242 14.514 6.049 12.976 6.9" fill="none"/><path d="M7.268,9.563.921,6.049V20.922l6.347-3.669Zm-2,7.194L1.608,18.692V10.461L5.272,8.526Z" fill="none"/><path d="M15.414,5.569H15.38l.055-.03L12.976,4.117V3.136l-.855.487-4.4-2.545-1.9,1.1V0l-1,.57V2.751L3.544,3.49V1.21l-1,.57V4.068L0,5.539l.055.03H.021V21.442L0,21.454l.021.012v.018H.054l1.2.663v5.126l5.443,2.785v-4.9l1.024.567.4-.257h.05v-.032L15.381,20.8h.032v-.018l.021-.012-.021-.012Zm-1.8-.047-.632.35V5.156ZM7.718,2.117l4.259,2.462V6.426L10.7,7.134V4.346l-1,.57V7.687l-1.98,1.1L1.826,5.522ZM1.826,21.438l5.442-3.146V24.45ZM.921,6.049,7.268,9.563v7.69L.921,20.922ZM5.794,28.588,2.15,26.723V22.645l3.644,2.018ZM8.167,24.45V9.563L9.7,8.715V13.77l1-.608v-5l1.278-.708v5.067l1-.568V6.9l1.538-.852V20.242Z" fill="#afb9c3"/><path d="M1.608,18.692l3.665-1.935V8.526L1.608,10.461ZM2.507,11l1.866-.985v6.2L2.507,17.2Z" fill="#afb9c3"/><polygon points="2.842 13.374 4.119 12.677 3.48 11.79 2.842 13.374" fill="#afb9c3"/><polygon points="3.48 15.376 4.119 13.792 2.842 14.489 3.48 15.376" fill="#afb9c3"/></g></g></svg>
