<!-- Copyright (c) Microsoft. All rights reserved. -->

<svg xmlns="http://www.w3.org/2000/svg" viewBox="0 0 16 7.91">
	<title>Disable Rule</title>
	<g id="Layer_2" data-name="Layer 2">
		<g id="Random">
			<path d="M12.045,1H3.956a2.955,2.955,0,1,0,0,5.91h8.089a2.955,2.955,0,0,0,0-5.91Zm1.064,4.115-.707.707-.992-.992L10.4,5.838,9.7,5.131,10.7,4.123,9.7,3.115l.707-.707,1.008,1.008.992-.991.707.707-.992.992Z" fill="none"/><path d="M12.045,0H3.956a3.955,3.955,0,1,0,0,7.91h8.089a3.955,3.955,0,0,0,0-7.91Zm0,6.91H3.956a2.955,2.955,0,1,1,0-5.91h8.089a2.955,2.955,0,0,1,0,5.91Z" fill="#afb9c3"/><polygon points="12.402 2.425 11.411 3.416 10.403 2.408 9.696 3.115 10.704 4.123 9.696 5.131 10.403 5.838 11.411 4.83 12.402 5.822 13.109 5.115 12.118 4.123 13.109 3.132 12.402 2.425" fill="#afb9c3"/>
		</g>
	</g>
</svg>
