<!-- Copyright (c) Microsoft. All rights reserved. -->

<svg xmlns="http://www.w3.org/2000/svg" viewBox="-18852 -21308 16 16">
  <defs>
    <style>
      .cls-1 {
        fill: #ccc;
      }
    </style>
  </defs>
  <path id="Path_1017" data-name="Path 1017" class="cls-1" d="M16,2.667a2.936,2.936,0,0,1-.133,1.067,1.224,1.224,0,0,1-.533.8L5.067,14.8,0,16l1.2-4.933L11.467.8A2.392,2.392,0,0,1,12.4.133,2.6,2.6,0,0,1,13.333,0,3.138,3.138,0,0,1,14.4.267,1.7,1.7,0,0,1,15.2.8a2.789,2.789,0,0,1,.533.8A2.512,2.512,0,0,1,16,2.667Zm-14.667,12L4,14c0-.267-.133-.4-.267-.667A1.041,1.041,0,0,0,3.2,12.8c-.267-.133-.267-.4-.533-.533S2.267,12.133,2,12Zm1.2-3.467A3.178,3.178,0,0,1,4,12a5.506,5.506,0,0,1,.933,1.467l8.4-8.4-2.4-2.4ZM14,4.267l.4-.4c.133-.133.267-.133.267-.267s.133-.267.267-.4.133-.267.133-.533A1.2,1.2,0,0,0,14.933,2a1.841,1.841,0,0,0-.4-.533,1.841,1.841,0,0,0-.533-.4c-.267-.133-.4,0-.667,0A.8.8,0,0,0,12.8,1.2c-.133.133-.267,0-.4.133s-.267.133-.267.267-.267.267-.4.4Z" transform="translate(-18852 -21308)"/>
</svg>
