<!-- Copyright (c) Microsoft. All rights reserved. -->

<svg xmlns="http://www.w3.org/2000/svg" viewBox="0 0 30.048 28.945"><title>Asset 37</title><g id="Layer_2" data-name="Layer 2"><g id="Random"><path d="M20.883,11.211a1.678,1.678,0,0,0,.745-.262.837.837,0,0,0-.722-.405.88.88,0,0,0-.118.008l-.762.1a.861.861,0,0,0-.715.63,2.367,2.367,0,0,0,.491.051,2.33,2.33,0,0,0,.319-.022Z" fill="none"/><path d="M13.781,14.1a7.74,7.74,0,0,0,.66-.72,5.331,5.331,0,0,0-.565-.924,9.232,9.232,0,0,0-1.543-.368,3.794,3.794,0,0,0-.078,1.268C12.394,13.776,13.347,14.049,13.781,14.1Z" fill="none"/><path d="M15.7,11.144a5,5,0,0,0-.848-.873,8.977,8.977,0,0,0-1.429-.3,6.283,6.283,0,0,0-.875,1.137,8.828,8.828,0,0,1,1.805.478c.1.044.328.161.81,1.033.208-.542.42-1.094.584-1.517Z" fill="none"/><path d="M10.263,13.236a7.68,7.68,0,0,0,.66-.72,5.349,5.349,0,0,0-.564-.924,9.3,9.3,0,0,0-1.544-.369,3.7,3.7,0,0,0-.078,1.269C8.876,12.909,9.829,13.182,10.263,13.236Z" fill="none"/><path d="M17.018,14.676a2.457,2.457,0,0,0,.5.054,2.362,2.362,0,0,0,.321-.022l.762-.1a1.664,1.664,0,0,0,.769-.277.847.847,0,0,0-.238-.295.857.857,0,0,0-.52-.176.867.867,0,0,0-.118.008l-.762.1A.851.851,0,0,0,17.018,14.676Z" fill="none"/><path d="M5.287,10.21a3.794,3.794,0,0,0-.078,1.268c.139.418,1.092.691,1.527.745a7.613,7.613,0,0,0,.66-.72,5.349,5.349,0,0,0-.564-.924A9.3,9.3,0,0,0,5.287,10.21Z" fill="none"/><path d="M18.883,7.637a3.178,3.178,0,0,1,.362-.14V5.075L10.151,3.261v2.3l8.711,2.094Z" fill="none"/><path d="M20.256,12.307a3.378,3.378,0,0,1-.446.031,2.552,2.552,0,0,1-.43-.047l.05.369a.858.858,0,0,0,.969.736l.762-.1a.861.861,0,0,0,.736-.969l-.05-.369a2.939,2.939,0,0,1-.829.249Z" fill="none"/><path d="M16.01,15.072a1.828,1.828,0,0,1-.007-.2c0-.021-.021-.037-.024-.059l.022,0a1.859,1.859,0,0,1,1.6-1.828l.762-.1c.031,0,.061,0,.091,0,0-.026-.014-.05-.018-.076L18.3,11.76a1.831,1.831,0,0,1-.009-.266c-.007-.028-.028-.05-.032-.079l.029,0a1.862,1.862,0,0,1,1.6-1.746l.762-.1c.059-.008.118,0,.178-.007V8.813c-.005,0-.087-.462-.388-.486a2.4,2.4,0,0,0-1.058.181L17.139,10.6a.556.556,0,0,0-.189.2c-.082.183-.965,2.487-1.56,4.047v.388c0,.225.223,2.449.37,3.882l.05,0a2.7,2.7,0,0,0,.734-.122Z" fill="none"/><path d="M7.81,8.391a8.874,8.874,0,0,0-1.428-.3,6.266,6.266,0,0,0-.875,1.137,8.8,8.8,0,0,1,1.805.478c.083.038.27.13.635.728.023-.108.046-.214.07-.315a3.613,3.613,0,0,1,.549-.968A4.544,4.544,0,0,0,7.81,8.391Z" fill="none"/><path d="M21.968,23.377c-.177,0-.5.429-.5,1.13s.325,1.131.5,1.131.5-.429.5-1.131S22.145,23.377,21.968,23.377Z" fill="none"/><path d="M26.939,16.229h0a4.593,4.593,0,0,1,1.553,3.745A4.772,4.772,0,0,1,27.026,23.7c1.1-.086,2.022-1.752,2.022-3.729C29.048,17.945,28.082,16.229,26.939,16.229Z" fill="none"/><path d="M11.337,9.4a8.921,8.921,0,0,0-1.428-.3,6.263,6.263,0,0,0-.875,1.137,8.8,8.8,0,0,1,1.806.478c.081.037.26.128.6.68.03-.145.061-.287.092-.421a3.372,3.372,0,0,1,.495-.888A4.155,4.155,0,0,0,11.337,9.4Z" fill="none"/><path d="M25.662,9.586l-2.941,1.452c.008.039.022.076.027.115l.14,1.034A1.863,1.863,0,0,1,21.3,14.282l-.762.1c-.031,0-.061,0-.091.006,0,.025.014.048.017.073l.547,4.013a1.864,1.864,0,0,1-1.593,2.095l-.762.1a1.918,1.918,0,0,1-.252.017,1.82,1.82,0,0,1-.236-.022v4.373c.289.012.788.009,1.1.007l1.244-1.023a1.95,1.95,0,0,1,1.017-1.55,9.115,9.115,0,0,1-.484-3.109,4.644,4.644,0,0,1,2.156-4.018l.114-.064h3.146V15.3a2.143,2.143,0,0,1,.484-.072,2.118,2.118,0,0,1,.334.05V13.7l-1.7.863Z" fill="none"/><path d="M24.83,19.975A4.786,4.786,0,0,0,25.9,23.2c.9-.265,1.587-1.606,1.587-3.226,0-1.649-.7-2.958-1.638-3.177A4.867,4.867,0,0,0,24.83,19.975Z" fill="none"/><path d="M23.83,19.975a5.886,5.886,0,0,1,1.152-3.686h-1.4a3.679,3.679,0,0,0-1.545,3.082,6.873,6.873,0,0,0,.63,3.247l-.005,0a1.851,1.851,0,0,1,.6.811l1.637.128A5.976,5.976,0,0,1,23.83,19.975Z" fill="none"/><path d="M4.343,16.549v.017l9.856,3.3a.186.186,0,0,0,.206-.1l.238-.711a.165.165,0,0,0-.1-.206L3.344,15.1v.213a1.157,1.157,0,0,1-.333.809l1.258.422Z" fill="none"/><path d="M1,9.918a.161.161,0,0,0,.068.1l.2.134.423.287a.183.183,0,0,0,.226-.044L2.2,9.986l.562-.831,1.65-2.439a.183.183,0,0,0-.043-.226l-.621-.42a.147.147,0,0,0-.081-.022.179.179,0,0,0-.145.066L1.58,8.98,1.028,9.8A.163.163,0,0,0,1,9.918Z" fill="none"/><path d="M14.767,20.754a1.154,1.154,0,0,1-.887.063L4.315,17.612A3.643,3.643,0,0,0,5,20.02a15.621,15.621,0,0,1,1.362,1.209l.147.174-.035.226s-.067.43-.108.826c.849.514,4.8,2.107,8.584,3.526V20.611A1.138,1.138,0,0,1,14.767,20.754Z" fill="none"/><path d="M4.689,5.4a1.815,1.815,0,0,0,.59.362A3.146,3.146,0,0,1,4.265,3.819,3.078,3.078,0,0,1,4.7,1.677c.006-.009.014-.016.02-.024A2.3,2.3,0,0,0,3.915,3.87,2.534,2.534,0,0,0,4.689,5.4Z" fill="none"/><path d="M17.88,19.519a.855.855,0,0,0,.637.167l.762-.1a.862.862,0,0,0,.736-.969l-.446-3.269a2.94,2.94,0,0,1-.83.25l-.762.1a3.326,3.326,0,0,1-.447.031,2.546,2.546,0,0,1-.428-.047l.445,3.268A.853.853,0,0,0,17.88,19.519Z" fill="none"/><path d="M26.939,24.721a2.13,2.13,0,0,1-.415-.062l0,.031-3.055-.238c0,.019,0,.037,0,.056,0,1.195-.66,2.131-1.5,2.131-.008,0-.015,0-.022,0-.718.585-1.181.956-1.476,1.18.294-.077.658-.184.976-.29l.169-.057.947.359,4.8-3.17A2.132,2.132,0,0,1,26.939,24.721Z" fill="none"/><path d="M18,27.169l.034.016,1.607,0c.216-.156.758-.586,1.35-1.063a2.229,2.229,0,0,1-.422-.85l-.941.774-.175,0c-.056,0-.331,0-.641,0s-.662,0-.855-.02a.836.836,0,0,1-.592-.295.95.95,0,0,1-.2-.671l0-4.851a1.867,1.867,0,0,1-.261-.292,4.069,4.069,0,0,1-.949.174v7.081l2.035,0Z" fill="none"/><path d="M20.246,5.011V7.324c.091,0,.183,0,.277.006a1.279,1.279,0,0,1,.94.528L23.631,6.64V3.55Z" fill="none"/><path d="M5.942,5.01a1.486,1.486,0,0,0,.893.371,2.4,2.4,0,0,0,.577-2.015A2.42,2.42,0,0,0,6.337,1.623a1.48,1.48,0,0,0-.8.6,2.081,2.081,0,0,0-.283,1.449A2.143,2.143,0,0,0,5.942,5.01Z" fill="none"/><polygon points="26.606 12.923 28.172 12.126 28.172 8.35 26.671 9.079 26.606 12.923" fill="none"/><path d="M21.828,8.8l0,.959h-.069a1.855,1.855,0,0,1,.268.165,1.876,1.876,0,0,1,.24.223L26.213,8.2l0-.007L28.254,7.2,27.173,5.384l-2.542-.179v2.02Z" fill="none"/><path d="M8.4,3.224A3.313,3.313,0,0,1,7.249,6.339l0,.022-.032,0a2.411,2.411,0,0,1-1.094.463,2.44,2.44,0,0,1-.347.025,2.406,2.406,0,0,1-.365-.036,1.144,1.144,0,0,1-.177.46h0l-1.9,2.814c0,.019.011.034.011.053v3.9l11.281,3.78c-.11-1.091-.235-2.391-.235-2.595l.017-.351a.73.73,0,0,1-.516.234c-.021,0-2.157-.152-2.585-1.437-.006-.017-.008-.039-.013-.058-.571.621-.769.628-.92.628-.021,0-2.157-.152-2.585-1.438a1.325,1.325,0,0,1-.04-.183c-.557.6-.752.607-.9.607-.021,0-2.157-.152-2.585-1.438A6.505,6.505,0,0,1,4.491,9.1,4.431,4.431,0,0,1,6.083,7.125a6.433,6.433,0,0,1,2.062.325,3.311,3.311,0,0,1,1.085.941,1.128,1.128,0,0,1,.379-.252,6.469,6.469,0,0,1,2.063.324,3.07,3.07,0,0,1,1.009.851A1.247,1.247,0,0,1,13.128,9a6.508,6.508,0,0,1,2.063.325,3.012,3.012,0,0,1,1,.838,1.831,1.831,0,0,1,.4-.4l1.4-1.292L9.151,6.35V2.2l.416-.132A2.4,2.4,0,0,0,8.25,1.02l-.9.13A3.533,3.533,0,0,1,8.4,3.224Z" fill="none"/><path d="M2.344,11.321a1.168,1.168,0,0,1-.563.148,1.158,1.158,0,0,1-.513-.134v3.976a.165.165,0,0,0,.163.163h.749a.165.165,0,0,0,.163-.163v-3.99Z" fill="none"/><polygon points="19.716 4.149 22.37 3.005 14.203 1.651 11.497 2.51 19.716 4.149" fill="none"/><path d="M30.048,19.975a5.25,5.25,0,0,0-1.774-4.286V13.2l.9-.457V6.752l-.069.033.051-.03L27.765,4.423,24.631,4.2V2.367L14.13.626l-3.6,1.14A3.427,3.427,0,0,0,8.413.025L8.316,0,5.624.388l0,.011A2.361,2.361,0,0,0,5.2.409a3.037,3.037,0,0,0-2.277,3.6,3.742,3.742,0,0,0,.347,1.116,1.141,1.141,0,0,0-.583.425L.2,9.235a1.154,1.154,0,0,0-.178.872,1.141,1.141,0,0,0,.248.5v4.706a1.156,1.156,0,0,0,.767,1.083,1.148,1.148,0,0,0,.421.26l1.851.62c-.009,1.035.129,2.737,1.053,3.512.607.51.929.8,1.092.947-.033.237-.08.6-.1.883-.034.444-.059.829,9.6,4.434v.162a1,1,0,0,0,1,.975h1.886a11.766,11.766,0,0,0,2.091.728,7.767,7.767,0,0,0,1.656-.385l1.094.416,6.346-4.193v-1.26A6.046,6.046,0,0,0,30.048,19.975Zm-1,0c0,1.978-.918,3.644-2.022,3.729a4.772,4.772,0,0,0,1.464-3.729,4.593,4.593,0,0,0-1.553-3.745h0C28.082,16.229,29.048,17.945,29.048,19.975Zm-6.385,2.646.005,0a6.873,6.873,0,0,1-.63-3.247,3.679,3.679,0,0,1,1.545-3.082h1.4a5.886,5.886,0,0,0-1.152,3.686A5.976,5.976,0,0,0,24.9,23.56l-1.637-.128A1.851,1.851,0,0,0,22.663,22.621Zm-.695,3.017c-.177,0-.5-.429-.5-1.131s.325-1.13.5-1.13.5.429.5,1.13S22.145,25.638,21.968,25.638Zm5.521-5.663c0,1.62-.688,2.961-1.587,3.226a4.786,4.786,0,0,1-1.073-3.226A4.867,4.867,0,0,1,25.852,16.8C26.788,17.017,27.49,18.326,27.49,19.975Zm-.216-4.7a2.118,2.118,0,0,0-.334-.05,2.143,2.143,0,0,0-.484.072V15.29H23.309l-.114.064a4.644,4.644,0,0,0-2.156,4.018,9.115,9.115,0,0,0,.484,3.109,1.95,1.95,0,0,0-1.017,1.55l-1.244,1.023c-.31,0-.809,0-1.1-.007V20.673a1.82,1.82,0,0,0,.236.022,1.918,1.918,0,0,0,.252-.017l.762-.1a1.864,1.864,0,0,0,1.593-2.095l-.547-4.013c0-.025-.013-.048-.017-.073.03,0,.061,0,.091-.006l.762-.1a1.863,1.863,0,0,0,1.592-2.094l-.14-1.034c-.005-.04-.02-.076-.027-.115l2.941-1.452-.084,4.981,1.7-.863Zm-15.737-4.3c-.031.135-.062.277-.092.421-.344-.552-.524-.643-.6-.68a8.8,8.8,0,0,0-1.806-.478,6.263,6.263,0,0,1,.875-1.137,8.921,8.921,0,0,1,1.428.3,4.155,4.155,0,0,1,.694.69A3.372,3.372,0,0,0,11.537,10.982Zm-3.52-.86c-.023.1-.047.208-.07.315-.365-.6-.551-.69-.635-.728a8.8,8.8,0,0,0-1.805-.478A6.266,6.266,0,0,1,6.381,8.1a8.874,8.874,0,0,1,1.428.3,4.544,4.544,0,0,1,.756.763A3.613,3.613,0,0,0,8.017,10.122ZM7.4,11.5a7.613,7.613,0,0,1-.66.72c-.435-.054-1.388-.327-1.527-.745a3.794,3.794,0,0,1,.078-1.268,9.3,9.3,0,0,1,1.544.369A5.349,5.349,0,0,1,7.4,11.5Zm1.419-.279a9.3,9.3,0,0,1,1.544.369,5.349,5.349,0,0,1,.564.924,7.68,7.68,0,0,1-.66.72c-.435-.054-1.388-.327-1.527-.744A3.7,3.7,0,0,1,8.814,11.223Zm6.354,1.4c-.482-.872-.714-.988-.81-1.033a8.828,8.828,0,0,0-1.805-.478,6.283,6.283,0,0,1,.875-1.137,8.977,8.977,0,0,1,1.429.3,5,5,0,0,1,.848.873l.048-.039C15.588,11.528,15.375,12.08,15.168,12.622Zm-2.835-.532a9.232,9.232,0,0,1,1.543.368,5.331,5.331,0,0,1,.565.924,7.74,7.74,0,0,1-.66.72c-.434-.054-1.388-.327-1.527-.745A3.794,3.794,0,0,1,12.333,12.09Zm3.478,7.023-.05,0c-.147-1.434-.368-3.657-.37-3.882v-.388c.595-1.56,1.479-3.864,1.56-4.047a.556.556,0,0,1,.189-.2l2.246-2.09a2.4,2.4,0,0,1,1.058-.181c.3.024.383.486.388.486v.742c-.059,0-.118,0-.178.007l-.762.1a1.862,1.862,0,0,0-1.6,1.746l-.029,0c0,.029.025.051.032.079a1.831,1.831,0,0,0,.009.266l.14,1.034c0,.026.013.05.018.076-.031,0-.061,0-.091,0l-.762.1A1.859,1.859,0,0,0,16,14.8l-.022,0c0,.022.02.038.024.059a1.828,1.828,0,0,0,.007.2l.534,3.919A2.7,2.7,0,0,1,15.81,19.113ZM10.151,3.261l9.094,1.815V7.5a3.178,3.178,0,0,0-.362.14l-.021.02L10.151,5.562ZM21.9,12.322a.861.861,0,0,1-.736.969l-.762.1a.858.858,0,0,1-.969-.736l-.05-.369a2.552,2.552,0,0,0,.43.047,3.378,3.378,0,0,0,.446-.031l.762-.1a2.939,2.939,0,0,0,.829-.249Zm-3.279,1.534a.857.857,0,0,1,.52.176.847.847,0,0,1,.238.295,1.664,1.664,0,0,1-.769.277l-.762.1a2.362,2.362,0,0,1-.321.022,2.457,2.457,0,0,1-.5-.054.851.851,0,0,1,.719-.708l.762-.1A.867.867,0,0,1,18.617,13.856Zm.694-2.57a.861.861,0,0,1,.715-.63l.762-.1a.88.88,0,0,1,.118-.008.837.837,0,0,1,.722.405,1.678,1.678,0,0,1-.745.262l-.762.1a2.33,2.33,0,0,1-.319.022A2.367,2.367,0,0,1,19.311,11.286Zm-1.78,4.444a3.326,3.326,0,0,0,.447-.031l.762-.1a2.94,2.94,0,0,0,.83-.25l.446,3.269a.862.862,0,0,1-.736.969l-.762.1a.861.861,0,0,1-.969-.736L17.1,15.683A2.546,2.546,0,0,0,17.531,15.73Zm10.641-3.6-1.566.8.065-3.844,1.5-.729Zm-1-6.742L28.254,7.2l-2.044.993,0,.007-3.942,1.947a1.876,1.876,0,0,0-.24-.223,1.855,1.855,0,0,0-.268-.165h.069l0-.959,2.8-1.575V5.206ZM23.631,3.84v2.8L21.463,7.858a1.279,1.279,0,0,0-.94-.528c-.094-.008-.187-.008-.277-.006V5.011l3.385-1.46v.29ZM14.2,1.651,22.37,3.005,19.716,4.149,11.5,2.51Zm-4.636.421L9.151,2.2V6.35L17.98,8.473l-1.4,1.292a1.831,1.831,0,0,0-.4.4,3.012,3.012,0,0,0-1-.838A6.508,6.508,0,0,0,13.128,9a1.247,1.247,0,0,0-.446.309,3.07,3.07,0,0,0-1.009-.851,6.469,6.469,0,0,0-2.063-.324,1.128,1.128,0,0,0-.379.252A3.311,3.311,0,0,0,8.145,7.45a6.433,6.433,0,0,0-2.062-.325A4.431,4.431,0,0,0,4.491,9.1a6.505,6.505,0,0,0-.23,2.693c.428,1.286,2.564,1.438,2.585,1.438.15,0,.345,0,.9-.607a1.325,1.325,0,0,0,.04.183c.429,1.286,2.564,1.438,2.585,1.438.151,0,.35-.007.92-.628.005.018.007.041.013.058.428,1.285,2.564,1.438,2.585,1.438a.73.73,0,0,0,.516-.234l-.017.351c0,.2.126,1.5.235,2.595L3.344,14.044v-3.9c0-.019-.01-.034-.011-.053l1.9-2.814h0a1.144,1.144,0,0,0,.177-.46,2.406,2.406,0,0,0,.365.036,2.44,2.44,0,0,0,.347-.025A2.411,2.411,0,0,0,7.22,6.364l.032,0,0-.022A3.313,3.313,0,0,0,8.4,3.224,3.533,3.533,0,0,0,7.347,1.15l.9-.13A2.4,2.4,0,0,1,9.567,2.072ZM2.344,15.311a.165.165,0,0,1-.163.163H1.432a.165.165,0,0,1-.163-.163V11.335a1.158,1.158,0,0,0,.513.134,1.168,1.168,0,0,0,.563-.148v3.99ZM5.538,2.228a1.48,1.48,0,0,1,.8-.6A2.42,2.42,0,0,1,7.413,3.366a2.4,2.4,0,0,1-.577,2.015,1.486,1.486,0,0,1-.893-.371,2.143,2.143,0,0,1-.687-1.333A2.081,2.081,0,0,1,5.538,2.228Zm-.814-.576c-.006.009-.014.016-.02.024a3.078,3.078,0,0,0-.438,2.143A3.146,3.146,0,0,0,5.279,5.757a1.815,1.815,0,0,1-.59-.362A2.534,2.534,0,0,1,3.915,3.87,2.3,2.3,0,0,1,4.723,1.652ZM3.518,6.113a.179.179,0,0,1,.145-.066.147.147,0,0,1,.081.022l.621.42a.183.183,0,0,1,.043.226L2.758,9.155,2.2,9.986l-.278.412a.183.183,0,0,1-.226.044l-.423-.287-.2-.134A.161.161,0,0,1,1,9.918.163.163,0,0,1,1.028,9.8L1.58,8.98Zm-.173,9.2V15.1L14.539,18.85a.165.165,0,0,1,.1.206l-.238.711a.186.186,0,0,1-.206.1l-9.856-3.3v-.017l-.073-.007L3.012,16.12A1.157,1.157,0,0,0,3.344,15.311ZM6.37,22.456c.042-.4.108-.823.108-.826l.035-.226-.147-.174A15.621,15.621,0,0,0,5,20.02a3.643,3.643,0,0,1-.689-2.408l9.565,3.205a1.154,1.154,0,0,0,.887-.062,1.138,1.138,0,0,0,.187-.144v5.371C11.175,24.563,7.219,22.97,6.37,22.456Zm9.583,4.727V20.1a4.069,4.069,0,0,0,.949-.174,1.867,1.867,0,0,0,.261.292l0,4.851a.95.95,0,0,0,.2.671.836.836,0,0,0,.592.295c.193.015.542.02.855.02s.584,0,.641,0l.175,0,.941-.774a2.229,2.229,0,0,0,.422.85c-.591.478-1.133.907-1.35,1.063l-1.607,0L18,27.169l-.009.015Zm6.608.645-.947-.359-.169.057c-.318.106-.682.213-.976.29.3-.224.759-.594,1.476-1.18.008,0,.015,0,.022,0,.842,0,1.5-.936,1.5-2.131,0-.019,0-.037,0-.056l3.055.238,0-.031a1.427,1.427,0,0,0,.834,0Z" fill="#afb9c3"/></g></g></svg>
