<!-- Copyright (c) Microsoft. All rights reserved. -->

<svg width="16" height="16" viewBox="0 0 16 16" fill="none" xmlns="http://www.w3.org/2000/svg">
  <path opacity="0.75" d="M8.50391 2.49999C5.19021 2.49999 2.50392 5.18628 2.50392 8.49999C2.50392 11.8137 5.19021 14.5 8.50391 14.5C11.8176 14.5 14.5039 11.8137 14.5039 8.5C14.5039 5.18628 11.8176 2.49999 8.50391 2.49999Z" fill="#E9E9E9" stroke="#212121" stroke-width="1.08" stroke-miterlimit="1"/>
  <path d="M8.13574 10.5566C8.10645 10.472 8.0804 10.363 8.05762 10.2295C8.03483 10.0928 8.02344 9.95768 8.02344 9.82422C8.02344 9.61589 8.06413 9.42871 8.14551 9.2627C8.23014 9.09342 8.33431 8.93555 8.45801 8.78906C8.58171 8.64258 8.7168 8.5026 8.86328 8.36914C9.00977 8.23242 9.14486 8.0957 9.26855 7.95898C9.39225 7.81901 9.49479 7.67415 9.57617 7.52441C9.66081 7.37142 9.70312 7.20378 9.70312 7.02148C9.70312 6.86523 9.6722 6.72689 9.61035 6.60645C9.55176 6.486 9.47038 6.38509 9.36621 6.30371C9.26204 6.22233 9.1416 6.16211 9.00488 6.12305C8.86816 6.08073 8.72331 6.05957 8.57031 6.05957C8.02018 6.05957 7.54329 6.27604 7.13965 6.70898V5.84961C7.6377 5.53711 8.15365 5.38086 8.6875 5.38086C8.9349 5.38086 9.16764 5.41341 9.38574 5.47852C9.60384 5.54362 9.79427 5.64128 9.95703 5.77148C10.123 5.89844 10.2533 6.05794 10.3477 6.25C10.4421 6.44206 10.4893 6.66504 10.4893 6.91895C10.4893 7.15983 10.4469 7.37467 10.3623 7.56348C10.2777 7.75228 10.1702 7.92643 10.04 8.08594C9.91309 8.24219 9.77474 8.38867 9.625 8.52539C9.47526 8.66211 9.33529 8.79883 9.20508 8.93555C9.07812 9.06901 8.97233 9.20898 8.8877 9.35547C8.80306 9.50195 8.76074 9.66309 8.76074 9.83887C8.76074 9.98861 8.77865 10.1253 8.81445 10.249C8.85026 10.3695 8.88607 10.472 8.92188 10.5566H8.13574ZM8.5752 12.5879C8.43197 12.5879 8.30501 12.5358 8.19434 12.4316C8.08691 12.3275 8.0332 12.2005 8.0332 12.0508C8.0332 11.8978 8.08691 11.7708 8.19434 11.6699C8.30176 11.5625 8.42871 11.5088 8.5752 11.5088C8.72168 11.5088 8.84863 11.5625 8.95605 11.6699C9.06348 11.7708 9.11719 11.8978 9.11719 12.0508C9.11719 12.2005 9.06348 12.3275 8.95605 12.4316C8.84538 12.5358 8.71842 12.5879 8.5752 12.5879Z" fill="#E2E2E2"/>
  <path d="M8.13574 10.0566C8.10645 9.97201 8.0804 9.86296 8.05762 9.72949C8.03483 9.59277 8.02344 9.45768 8.02344 9.32422C8.02344 9.11589 8.06413 8.92871 8.14551 8.7627C8.23014 8.59342 8.33431 8.43555 8.45801 8.28906C8.58171 8.14258 8.7168 8.0026 8.86328 7.86914C9.00977 7.73242 9.14486 7.5957 9.26855 7.45898C9.39225 7.31901 9.49479 7.17415 9.57617 7.02441C9.66081 6.87142 9.70312 6.70378 9.70312 6.52148C9.70312 6.36523 9.6722 6.22689 9.61035 6.10645C9.55176 5.986 9.47038 5.88509 9.36621 5.80371C9.26204 5.72233 9.1416 5.66211 9.00488 5.62305C8.86816 5.58073 8.72331 5.55957 8.57031 5.55957C8.02018 5.55957 7.54329 5.77604 7.13965 6.20898V5.34961C7.6377 5.03711 8.15365 4.88086 8.6875 4.88086C8.9349 4.88086 9.16764 4.91341 9.38574 4.97852C9.60384 5.04362 9.79427 5.14128 9.95703 5.27148C10.123 5.39844 10.2533 5.55794 10.3477 5.75C10.4421 5.94206 10.4893 6.16504 10.4893 6.41895C10.4893 6.65983 10.4469 6.87467 10.3623 7.06348C10.2777 7.25228 10.1702 7.42643 10.04 7.58594C9.91309 7.74219 9.77474 7.88867 9.625 8.02539C9.47526 8.16211 9.33529 8.29883 9.20508 8.43555C9.07812 8.56901 8.97233 8.70898 8.8877 8.85547C8.80306 9.00195 8.76074 9.16309 8.76074 9.33887C8.76074 9.48861 8.77865 9.62533 8.81445 9.74902C8.85026 9.86947 8.88607 9.97201 8.92188 10.0566H8.13574ZM8.5752 12.0879C8.43197 12.0879 8.30501 12.0358 8.19434 11.9316C8.08691 11.8275 8.0332 11.7005 8.0332 11.5508C8.0332 11.3978 8.08691 11.2708 8.19434 11.1699C8.30176 11.0625 8.42871 11.0088 8.5752 11.0088C8.72168 11.0088 8.84863 11.0625 8.95605 11.1699C9.06348 11.2708 9.11719 11.3978 9.11719 11.5508C9.11719 11.7005 9.06348 11.8275 8.95605 11.9316C8.84538 12.0358 8.71842 12.0879 8.5752 12.0879Z" fill="#494949"/>
</svg>
