<!-- Copyright (c) Microsoft. All rights reserved. -->
<svg xmlns="http://www.w3.org/2000/svg" viewBox="-24306 -23048 10 10">
  <path id="Info_Bubble" data-name="Info Bubble" class="cls-1" d="M5-13.962a4.953,4.953,0,0,1-1.331-.177,5.021,5.021,0,0,1-1.2-.5,4.976,4.976,0,0,1-1.013-.781A4.976,4.976,0,0,1,.68-16.436a5.021,5.021,0,0,1-.5-1.2A4.953,4.953,0,0,1,0-18.962a4.953,4.953,0,0,1,.177-1.331,5.021,5.021,0,0,1,.5-1.2A4.976,4.976,0,0,1,1.461-22.5a4.976,4.976,0,0,1,1.013-.781,5.021,5.021,0,0,1,1.2-.5A4.953,4.953,0,0,1,5-23.962a4.953,4.953,0,0,1,1.331.177,5.021,5.021,0,0,1,1.2.5,4.976,4.976,0,0,1,1.013.781,4.976,4.976,0,0,1,.781,1.013,5.021,5.021,0,0,1,.5,1.2A4.953,4.953,0,0,1,10-18.962a4.953,4.953,0,0,1-.177,1.331,5.021,5.021,0,0,1-.5,1.2,4.976,4.976,0,0,1-.781,1.013,4.976,4.976,0,0,1-1.013.781,5.021,5.021,0,0,1-1.2.5A4.953,4.953,0,0,1,5-13.962m0-9.333a4.206,4.206,0,0,0-1.151.156,4.439,4.439,0,0,0-1.034.438,4.307,4.307,0,0,0-.878.677,4.307,4.307,0,0,0-.677.878A4.427,4.427,0,0,0,.823-20.11a4.215,4.215,0,0,0-.156,1.148,4.215,4.215,0,0,0,.156,1.148,4.427,4.427,0,0,0,.438,1.036,4.307,4.307,0,0,0,.677.878,4.307,4.307,0,0,0,.878.677,4.439,4.439,0,0,0,1.034.437A4.207,4.207,0,0,0,5-14.628a4.215,4.215,0,0,0,1.148-.156,4.427,4.427,0,0,0,1.036-.437,4.307,4.307,0,0,0,.878-.677,4.307,4.307,0,0,0,.677-.878,4.439,4.439,0,0,0,.438-1.034,4.207,4.207,0,0,0,.156-1.151,4.215,4.215,0,0,0-.156-1.148,4.427,4.427,0,0,0-.438-1.036,4.307,4.307,0,0,0-.677-.878,4.307,4.307,0,0,0-.878-.677,4.427,4.427,0,0,0-1.036-.437A4.215,4.215,0,0,0,5-23.295m-.333,3.333h.667v3.333H4.667v-3.333m0-1.333h.667v.667H4.667Z" transform="translate(-24306 -23024.039)"/>
</svg>
