<!-- Copyright (c) Microsoft. All rights reserved. -->

<svg xmlns="http://www.w3.org/2000/svg" viewBox="0 0 7.639 7.763"><title>Asset 9</title><g id="Layer_2" data-name="Layer 2"><g id="Layer_1-2" data-name="Layer 1"><path d="M7.066,5.343a1.419,1.419,0,0,0,.123-.317,4.025,4.025,0,0,0,.043-.591h.356V3.971H4.22v.463h.356a4.025,4.025,0,0,0,.043.591,1.4,1.4,0,0,0,.123.317,1.359,1.359,0,0,0,.2.275,1.447,1.447,0,0,0,.261.224,1.454,1.454,0,0,0-.261.224,1.34,1.34,0,0,0-.2.277,1.453,1.453,0,0,0-.123.317,3.987,3.987,0,0,0-.043.589H4.22v.463H7.589V7.25H7.232a3.987,3.987,0,0,0-.043-.589,1.47,1.47,0,0,0-.123-.317,1.34,1.34,0,0,0-.2-.277,1.459,1.459,0,0,0-.261-.224,1.452,1.452,0,0,0,.261-.224A1.359,1.359,0,0,0,7.066,5.343ZM6.638,5.16a1.064,1.064,0,0,1-.362.342.456.456,0,0,0-.148.143.386.386,0,0,0,0,.395.456.456,0,0,0,.148.143,1.064,1.064,0,0,1,.362.342,1.952,1.952,0,0,1,.13.725H5.04a1.952,1.952,0,0,1,.13-.725,1.063,1.063,0,0,1,.362-.342.458.458,0,0,0,.148-.143.386.386,0,0,0,0-.395A.458.458,0,0,0,5.532,5.5,1.063,1.063,0,0,1,5.17,5.16a1.953,1.953,0,0,1-.13-.725H6.769A1.953,1.953,0,0,1,6.638,5.16Z" fill="#afb9c3" stroke="#ccc" stroke-miterlimit="10" stroke-width="0.1"/><path d="M1.795,6.78a.706.706,0,0,1-.243.159.781.781,0,0,1-.29.054.735.735,0,0,1-.292-.058.76.76,0,0,1-.237-.158.749.749,0,0,1-.161-.235.715.715,0,0,1-.06-.292.738.738,0,0,1,.058-.29.753.753,0,0,1,.163-.243l3.1-3.1Q3.8,2.5,3.779,2.381a1.371,1.371,0,0,1-.022-.246A1.565,1.565,0,0,1,3.885,1.5,1.635,1.635,0,0,1,4.747.642,1.565,1.565,0,0,1,5.379.513,1.523,1.523,0,0,1,5.889.6l-1.3,1.3L5.61,2.924l1.3-1.3A1.523,1.523,0,0,1,7,2.135a1.538,1.538,0,0,1-.076.507,1.624,1.624,0,0,1-.206.4,2.654,2.654,0,0,1-.3.355l-.225.222h.65l.012-.012a2.233,2.233,0,0,0,.454-.677,2.01,2.01,0,0,0,.158-.8,1.926,1.926,0,0,0-.031-.358,1.837,1.837,0,0,0-.089-.315,2.8,2.8,0,0,0-.136-.3q-.078-.148-.172-.315L5.61,2.273,5.241,1.9,6.667.477Q6.5.383,6.352.305a2.8,2.8,0,0,0-.3-.136A1.837,1.837,0,0,0,5.737.081,1.927,1.927,0,0,0,5.379.05a2.018,2.018,0,0,0-.811.165,2.1,2.1,0,0,0-1.11,1.11,2.017,2.017,0,0,0-.165.811q0,.083.007.168t.022.168L.4,5.39a1.188,1.188,0,0,0-.264.4,1.224,1.224,0,0,0-.09.465,1.169,1.169,0,0,0,.1.471,1.226,1.226,0,0,0,.646.646,1.169,1.169,0,0,0,.471.1,1.224,1.224,0,0,0,.465-.09,1.188,1.188,0,0,0,.4-.264L3.976,5.24l-.219-.423Z" fill="#afb9c3" stroke="#ccc" stroke-miterlimit="10" stroke-width="0.1"/></g></g></svg>
