<!-- Copyright (c) Microsoft. All rights reserved. -->

<svg xmlns="http://www.w3.org/2000/svg" viewBox="-23164 -24658 23 16.41">
  <defs>
    <style>
      .cls-1 {
        fill: #afb9c3;
      }
    </style>
  </defs>
  <g id="Group_1318" data-name="Group 1318" transform="translate(-23164 -24658)">
    <g id="Group_1317" data-name="Group 1317">
      <path id="Path_1126" data-name="Path 1126" class="cls-1" d="M21.905,1.842a2.643,2.643,0,0,0-.505-.758,3.349,3.349,0,0,0-.758-.632A2.38,2.38,0,0,0,19.632.2a2.781,2.781,0,0,0-1.011.126,1.16,1.16,0,0,0-.758.505L8.137,10.684,7,15.358l4.674-1.137L21.4,4.495a2.642,2.642,0,0,0,.505-.758,2.38,2.38,0,0,0,.253-1.011A1.826,1.826,0,0,0,21.905,1.842ZM8.263,14.095l.632-2.4c.253,0,.379.126.632.253a1.744,1.744,0,0,1,.505.379c.126.126.253.379.379.505a.965.965,0,0,1,.253.632Zm3.284-1.137a3.27,3.27,0,0,0-.884-1.389A4.2,4.2,0,0,0,9.4,10.811l7.958-7.958L19.632,5Zm9.6-9.726c0,.126-.126.253-.253.379s-.253.253-.253.379-.253.253-.379.379L18.116,2.221l.379-.379c.126-.126.253-.253.379-.253s.253-.126.379-.253a.464.464,0,0,1,.379-.126,1.139,1.139,0,0,1,.632.126,1.744,1.744,0,0,1,.505.379,1.744,1.744,0,0,1,.379.505,1.139,1.139,0,0,1,.126.632A.464.464,0,0,0,21.147,3.232Z" transform="translate(0.842 1.053)"/>
      <path id="Path_1127" data-name="Path 1127" class="cls-1" d="M5.305,8.211,1.011,1.263V1.011H14.147v.253L9.853,8.211v.253l2.653-2.779,2.653-4.042V0H0V1.642L4.421,8.589v4.674h2.4l.253-.884H5.305Z"/>
    </g>
  </g>
</svg>
