<!-- Copyright (c) Microsoft. All rights reserved. -->

<svg xmlns="http://www.w3.org/2000/svg" viewBox="0 0 16 14.424">
	<title>Manage Filters</title>
	<g id="Layer_2" data-name="Layer 2">
		<g id="Random">
			<path d="M14.438,6.44a.637.637,0,0,0-.211.035.468.468,0,0,0-.18.113L8.641,11.995l-.266,1.055,1.055-.266,5.406-5.4a.542.542,0,0,0,.164-.4.522.522,0,0,0-.16-.395A.561.561,0,0,0,14.438,6.44Z" fill="none"/><path d="M15.547,5.881a1.538,1.538,0,0,0-.5-.324,1.6,1.6,0,0,0-.613-.117,1.66,1.66,0,0,0-.594.113,1.427,1.427,0,0,0-.508.324l-5.6,5.6L7,14.424l2.945-.734,5.6-5.6a1.516,1.516,0,0,0,.336-.508,1.588,1.588,0,0,0,0-1.207A1.515,1.515,0,0,0,15.547,5.881Zm-.711,1.5-5.406,5.4-1.055.266.266-1.055,5.406-5.406a.468.468,0,0,1,.18-.113.637.637,0,0,1,.211-.035.561.561,0,0,1,.4.152.522.522,0,0,1,.16.395A.542.542,0,0,1,14.836,7.385Z" fill="#afb9c3"/>
			<polygon points="0 0 0 1.711 5.72 7.511 5.72 13.6 6.168 13.6 6.721 10.868 6.72 10.579 6.72 7.089 1 1.289 1 1 15 1 15 1.289 9 7.089 9 8.759 10 7.859 10 7.511 16 1.711 16 0 0 0" fill="#afb9c3"/>
		</g>
	</g>
</svg>
