<!-- Copyright (c) Microsoft. All rights reserved. -->

<svg xmlns="http://www.w3.org/2000/svg" viewBox="-22232 -21413 16 16">
  <defs>
    <style>
      .cls-1 {
        fill: #6a737c;
      }
    </style>
  </defs>
  <g id="Group_3310" data-name="Group 3310" transform="translate(-22254 -21413)">
    <path id="Path_1740" data-name="Path 1740" class="cls-1" d="M38,4H36V6h2V7H36V9h2v1H36v2h2v1H36v1H35v2H34V14H32v2H31V14H29v2H28V14H26v2H25V14H24V13H22V12h2V10H22V9h2V7H22V6h2V4H22V3h2V2h1V0h1V2h2V0h1V2h2V0h1V2h2V0h1V2h1V3h2Z"/>
  </g>
</svg>
