<!-- Copyright (c) Microsoft. All rights reserved. -->
<svg xmlns="http://www.w3.org/2000/svg" width="24" height="24" viewBox="0 0 24 24">
  <path transform="scale(0.0117,-0.0117) translate(2, -2050)" d="M1023 0L895 0L895 128L1023 128L1023 0M551.50 1878Q551.50 1878 635.75 1963Q720 2048 959 2048Q1198 2048 1366.50 1879.50Q1535 1711 1535 1489Q1535 1267 1437.50 1161Q1340 1055 1279 998L1258 979Q1146 873 1105 817Q1023 704 1023 576L1023 384L895 384L895 576Q895 783 992 887Q1089 991 1151 1049L1166 1063Q1284 1173 1325 1230Q1407 1345 1407 1454Q1407 1563 1372.50 1645Q1338 1727 1241.50 1823.50Q1145 1920 959.50 1920Q774 1920 642 1788Q510 1656 511 1472L383 1472Q383 1708 551.50 1878Z"/>
</svg>
