<!-- Copyright (c) Microsoft. All rights reserved. -->

<svg xmlns="http://www.w3.org/2000/svg" viewBox="0 0 6.75 12">
  <title>Asset 14</title>
  <g id="Layer_2" data-name="Layer 2"><g id="Layer_1-2" data-name="Layer 1">
    <path d="M6,3a.733.733,0,0,1,.29.059.779.779,0,0,1,.24.158.728.728,0,0,1,.161.234.712.712,0,0,1,.059.287V9.012a.712.712,0,0,1-.059.287.728.728,0,0,1-.161.234.779.779,0,0,1-.24.158A.733.733,0,0,1,6,9.75H3.75V12H3V9.75H.75a.733.733,0,0,1-.29-.059.779.779,0,0,1-.24-.158A.728.728,0,0,1,.059,9.3.712.712,0,0,1,0,9.012V3.738a.712.712,0,0,1,.059-.287A.728.728,0,0,1,.22,3.217a.779.779,0,0,1,.24-.158A.733.733,0,0,1,.75,3V0H6Zm0,.75H.75V9H6ZM1.5,3H5.25V.75H1.5Zm.75-1.5H3v.75H2.25Zm1.5,0H4.5v.75H3.75Z" fill="#afb8c2"/>
  </g></g>
</svg>
