<!-- Copyright (c) Microsoft. All rights reserved. -->

<svg xmlns="http://www.w3.org/2000/svg" viewBox="0 0 15.19 14.125"><title>Reconfigure</title><g id="Layer_2" data-name="Layer 2"><g id="Random"><path d="M12.253,3q.2,0,.488-.023a3.151,3.151,0,0,1,.361-.027c.206,0,.784.007.99.027a1.7,1.7,0,0,1,.551.145,1,1,0,0,1,.395.324A.926.926,0,0,1,15.19,4v9.125a.976.976,0,0,1-.078.391,1.018,1.018,0,0,1-.531.531.976.976,0,0,1-.391.078H1a.974.974,0,0,1-.391-.078,1.018,1.018,0,0,1-.531-.531A.967.967,0,0,1,0,13.125V4a.967.967,0,0,1,.078-.391,1.018,1.018,0,0,1,.531-.531A.974.974,0,0,1,1,3H7.847L10.386.461a1.582,1.582,0,0,1,.5-.34,1.507,1.507,0,0,1,.6-.121,1.47,1.47,0,0,1,.6.125,1.6,1.6,0,0,1,.828.832,1.5,1.5,0,0,1,.125.605,1.542,1.542,0,0,1-.059.449,1.42,1.42,0,0,1-.164.355,2.159,2.159,0,0,1-.25.316Q12.425,2.836,12.253,3ZM14.19,4H11.253L6,9.266,3.05,10l.734-2.945L6.847,4H1v9.125H14.19Zm-2.7-3a.533.533,0,0,0-.391.164L4.691,7.57,4.425,8.625,5.48,8.359S11,2.849,11.136,2.734s.271-.238.406-.371a3.216,3.216,0,0,0,.355-.41.682.682,0,0,0,.152-.391.537.537,0,0,0-.168-.4A.547.547,0,0,0,11.488,1Z" fill="#afb9c3"/></g></g></svg>
