<!-- Copyright (c) Microsoft. All rights reserved. -->

<svg xmlns="http://www.w3.org/2000/svg" viewBox="-22756 -7777 12 12.372">
  <g id="Group_634" data-name="Group 634" transform="translate(-22756 -7777)">
    <g id="Group_632" data-name="Group 632">
      <path id="Path_974" data-name="Path 974" class="cls-1" d="M1.825,3.448A4.52,4.52,0,0,1,2.907,2.265a4.471,4.471,0,0,1,1.42-.777,5.268,5.268,0,0,1,1.623-.27A5.075,5.075,0,0,1,7.2,1.386a4.33,4.33,0,0,1,1.149.473,5.4,5.4,0,0,1,1.014.777,4.5,4.5,0,0,1,.777,1.014H8.349V4.868H12V1.217H10.783V2.434h0c-.2-.237-.406-.473-.608-.676a4.051,4.051,0,0,0-.71-.575A6.093,6.093,0,0,0,7.775.338a5.747,5.747,0,0,0-3.887,0A6.23,6.23,0,0,0,.777,2.806,6.215,6.215,0,0,0,0,4.7l1.183.27A5.027,5.027,0,0,1,1.825,3.448Z"/>
    </g>
    <g id="Group_633" data-name="Group 633" transform="translate(0 7.437)">
      <path id="Path_975" data-name="Path 975" class="cls-1" d="M10.175,23.521A4.52,4.52,0,0,1,9.093,24.7a4.471,4.471,0,0,1-1.42.777,5.1,5.1,0,0,1-1.623.27A5.075,5.075,0,0,1,4.8,25.583a4.33,4.33,0,0,1-1.149-.473,4.5,4.5,0,0,1-1.014-.777,4.5,4.5,0,0,1-.777-1.014H3.651V22.1H0v3.651H1.217V24.535h0c.2.237.406.473.608.676a4.051,4.051,0,0,0,.71.575,6.093,6.093,0,0,0,1.69.845,5.792,5.792,0,0,0,1.859.3A5.809,5.809,0,0,0,8.113,26.6a6,6,0,0,0,1.758-.98,6.34,6.34,0,0,0,1.352-1.487A5.471,5.471,0,0,0,12,22.237L10.783,22A5.967,5.967,0,0,1,10.175,23.521Z" transform="translate(0 -22)"/>
    </g>
  </g>
</svg>
