<!-- Copyright (c) Microsoft. All rights reserved. -->

<svg xmlns="http://www.w3.org/2000/svg" viewBox="0 0 8.143 8.458"><title>Asset 15</title><g id="Layer_2" data-name="Layer 2"><g id="Layer_1-2" data-name="Layer 1"><path d="M2.036,6.663h.555V8.328H2.036V7.773H.925V1.666H0V0H4.627V1.666H1.481v1.11h.555V2.221h5V2.8a1.53,1.53,0,0,0-.288.072A1.545,1.545,0,0,0,6.477,3V2.776H2.591v.555H6.065l-.555.555H2.036V3.331H1.481V5h.555V4.442H4.955L4.4,5H2.591v.555H3.845l-.56.555H2.036V5.552H1.481V7.218h.555ZM4.072,1.11V.555H.555V1.11Zm3.2,2.36a.887.887,0,0,1,.34.065.85.85,0,0,1,.275.18.836.836,0,0,1,.184.273.882.882,0,0,1,0,.67.842.842,0,0,1-.187.282l-3.11,3.11-1.635.408.408-1.635,3.11-3.11a.793.793,0,0,1,.282-.18A.919.919,0,0,1,7.276,3.47ZM7.5,4.55a.3.3,0,0,0,.091-.221A.289.289,0,0,0,7.5,4.11a.311.311,0,0,0-.223-.085.355.355,0,0,0-.117.02.26.26,0,0,0-.1.063l-3,3-.147.586L4.5,7.547ZM6.477,7.335l.555-.555V8.328H5.484l.555-.555h.438Z" fill="#afb9c3"/></g></g></svg>
