<!-- Copyright (c) Microsoft. All rights reserved. -->

<svg xmlns="http://www.w3.org/2000/svg" viewBox="0 0 14.4 14.4">
	<g data-name="Layer 2">
		<g>
			<polygon points="14.251 0.888 13.544 0.181 7.201 6.529 0.853 0.187 0.146 0.894 6.494 7.237 0.175 13.561 0.882 14.268 7.202 7.943 13.527 14.263 14.234 13.556 7.908 7.236 14.251 0.888" fill="#afb9c3"/><path d="M7.2,1a6.153,6.153,0,0,1,3.195.9l.726-.727a7.159,7.159,0,0,0-7.847,0L4,1.9A6.154,6.154,0,0,1,7.2,1Z" fill="#afb9c3"/><path d="M13.231,11.121a7.153,7.153,0,0,0,.026-7.8l-.727.727a6.141,6.141,0,0,1-.026,6.345Z" fill="#afb9c3"/><path d="M7.2,13.4a6.153,6.153,0,0,1-3.147-.867l-.726.727a7.15,7.15,0,0,0,7.76-.008l-.727-.727A6.153,6.153,0,0,1,7.2,13.4Z" fill="#afb9c3"/>
			<path d="M1.145,3.319a7.155,7.155,0,0,0,.027,7.808L1.9,10.4a6.142,6.142,0,0,1-.027-6.354Z" fill="#afb9c3"/>
		</g>
	</g>
</svg>
