<!-- Copyright (c) Microsoft. All rights reserved. -->

<svg xmlns="http://www.w3.org/2000/svg" viewBox="-23353 -7710 19.217 16">
  <g data-name="Group 594" transform="translate(-23353 -7710)">
    <path data-name="Path 966" class="cls-1" d="M8.92,7.66,7.9,6.634,7,7.5,8.12,8.62A4.242,4.242,0,0,0,8.92,7.66Z" transform="translate(4.2 4.02)"/>
    <path data-name="Path 967" class="cls-1" d="M14,5.8l-.552-.552L13.2,5,10.48,7.56a5.915,5.915,0,0,1-.8,1.76A10.352,10.352,0,0,1,8.4,10.76l.32.32Z" transform="translate(5.04 3)"/>
    <path data-name="Path 968" class="cls-2" d="M2.5,4.64a4.538,4.538,0,0,1,1.44-1.6,4.36,4.36,0,0,1,1.92-.96A9.771,9.771,0,0,1,7.94,1.6a4.933,4.933,0,0,1,1.6.16,6.687,6.687,0,0,1,1.6.64,8.875,8.875,0,0,1,1.28.96A11.281,11.281,0,0,1,13.54,4.8h-2.4V6.4h4.8V1.6h-1.6V3.2h0c-.32-.32-.48-.64-.8-.96s-.64-.48-.96-.8A9.775,9.775,0,0,0,10.34.32,6.219,6.219,0,0,0,7.94,0,8.127,8.127,0,0,0,5.22.48,7.484,7.484,0,0,0,2.98,1.76,6.821,6.821,0,0,0,1.22,3.68,12.385,12.385,0,0,0,.1,6.24l1.6.32A6.925,6.925,0,0,1,2.5,4.64Z" transform="translate(0.06)"/>
    <path data-name="Path 969" class="cls-1" d="M10.1,8.3a7.679,7.679,0,0,0,.724-1.689l-1.76,1.6L8.5,7.66a4.242,4.242,0,0,1-.8.96L8.82,9.74A10.352,10.352,0,0,0,10.1,8.3Z" transform="translate(4.62 4.02)"/>
    <g data-name="Group 575" transform="translate(0 9.6)">
      <g data-name="Group 574">
        <path data-name="Path 970" class="cls-2" d="M10.08,10.48A8.107,8.107,0,0,1,8,10.8a4.932,4.932,0,0,1-1.6-.16c-.48-.16-1.12-.48-1.6-.64A2.846,2.846,0,0,1,3.52,8.88c-.32-.48-.8-.8-1.12-1.28H4.8V6H0v4.8H1.6V9.2h0c.32.32.48.64.8.96s.64.48.96.8A9.775,9.775,0,0,0,5.6,12.08,6.219,6.219,0,0,0,8,12.4a8.127,8.127,0,0,0,2.72-.48,9.813,9.813,0,0,0,1.8-.96l-.2-.32-.8-.96A6.485,6.485,0,0,1,10.08,10.48Z" transform="translate(0 -6)"/>
      </g>
    </g>
  </g>
</svg>
