<!-- Copyright (c) Microsoft. All rights reserved. --> 

<svg xmlns="http://www.w3.org/2000/svg" viewBox="0 0 12 16.989"><title>Schedule Job</title><g id="Layer_2" data-name="Layer 2"><g id="Random"><path d="M12,2.989v14H0v-14H2V2L4,2a1.943,1.943,0,0,1,.156-.777A2.015,2.015,0,0,1,5.223.156a2.012,2.012,0,0,1,1.555,0A2.015,2.015,0,0,1,7.844,1.223,1.951,1.951,0,0,1,8,2h2v.989Zm-1,1H10V5.757H2V3.989H1v12H11ZM2.21,8.869H6v1H2.21Zm0,3H6v1H2.21ZM3,4.757H9V3H7V2a.976.976,0,0,0-.078-.391,1.018,1.018,0,0,0-.531-.531,1.016,1.016,0,0,0-.781,0,1.018,1.018,0,0,0-.531.531A.967.967,0,0,0,5,2V3H3ZM9.148,7.517l.7.7L8,10.072,6.648,8.721l.7-.7L8,8.666Zm0,3,.7.7L8,13.072,6.648,11.721l.7-.7L8,11.666Z" fill="#afb9c3"/></g></g></svg>
