<svg xmlns="http://www.w3.org/2000/svg" width="24" height="24" viewBox="0 0 24 24">
  <path transform="scale(0.0117,-0.0117) translate(2, -2050)" d="M1122 812.50Q1122 812.50 1174.50 790.25Q1227 768 1344 768Q1461 768 1566 812.50Q1671 857 1751 937Q1831 1017 1875.50 1122Q1920 1227 1920 1344Q1920 1461 1875.50 1566Q1831 1671 1751 1751Q1671 1831 1566 1875.50Q1461 1920 1344 1920Q1227 1920 1122 1875.50Q1017 1831 937 1751Q857 1671 812.50 1566Q768 1461 768 1344Q768 1227 812.50 1122Q857 1017 937 937Q1017 857 1122 812.50M640 1344Q640 1635 809 1804Q978 1973 1113.50 2010.50Q1249 2048 1442 2048Q1635 2048 1804 1879Q1973 1710 2010.50 1574.50Q2048 1439 2048 1246Q2048 1053 1879 884Q1710 715 1574.50 677.50Q1439 640 1344 640Q1094 640 894 803L109 19Q90 0 64 0Q38 0 19 19Q0 38 0 64Q0 90 19 109L803 894Q640 1094 640 1344Z"/>
</svg>
