<!-- Copyright (c) Microsoft. All rights reserved. -->
<svg xmlns="http://www.w3.org/2000/svg" viewBox="0 0 7.667 7.667"><g id="Layer_2" data-name="Layer 2"><g id="Layer_1-2" data-name="Layer 1"><path d="M6.075,5.883l-.192.192.138,1-1.444.6-.61-.8q-.133.005-.266,0l-.61.8-1.444-.6.138-1-.192-.192-1,.138L0,4.577l.8-.61Q.792,3.834.8,3.7L0,3.09.6,1.646l1,.138.192-.192L1.646.6,3.09,0,3.7.8q.133-.005.266,0l.61-.8L6.021.6l-.138,1,.192.192,1-.138.6,1.444-.8.61q.005.133,0,.266l.8.61-.6,1.444Zm-.658.035c.046-.039.466-.459.5-.5l.9.114.325-.783-.715-.554c.012-.123.011-.59,0-.714l.715-.554-.325-.783-.9.111c-.037-.044-.457-.464-.5-.5l.114-.9L4.745.525l-.554.715c-.123-.012-.59-.011-.714,0L2.923.525,2.139.85l.111.9c-.046.039-.466.459-.5.5l-.9-.114-.325.783.715.554c-.012.123-.011.59,0,.714l-.715.554.325.783.9-.111c.037.044.457.464.5.5l-.114.9.783.325.554-.715c.123.012.59.011.714,0l.554.715.783-.325Zm-.465-3.2a1.541,1.541,0,0,1,.348.523,1.583,1.583,0,0,1,0,1.19,1.592,1.592,0,0,1-.871.871,1.583,1.583,0,0,1-1.19,0,1.592,1.592,0,0,1-.871-.871,1.583,1.583,0,0,1,0-1.19,1.592,1.592,0,0,1,.871-.871,1.583,1.583,0,0,1,1.19,0A1.541,1.541,0,0,1,4.952,2.715ZM3,4.667a1.158,1.158,0,0,0,.39.26,1.177,1.177,0,0,0,.887,0,1.2,1.2,0,0,0,.65-.65,1.177,1.177,0,0,0,0-.887,1.2,1.2,0,0,0-.65-.65,1.177,1.177,0,0,0-.887,0,1.2,1.2,0,0,0-.65.65,1.177,1.177,0,0,0,0,.887A1.158,1.158,0,0,0,3,4.667Z" /></g></g></svg>
