<!-- Copyright (c) Microsoft. All rights reserved. --> 

<svg xmlns="http://www.w3.org/2000/svg" viewBox="0 0 16 16"><title>SIM Center</title><g id="Layer_2" data-name="Layer 2"><g id="Random"><polygon points="4.922 9.783 6.59 9.783 6.59 7.66 4 7.66 4 10.683 4.921 10.683 4.922 9.783" fill="none"/><path d="M13.711,9H13V8.289l1.141-1.141A1.519,1.519,0,0,0,13.5,7a1.47,1.47,0,0,0-.586.117,1.492,1.492,0,0,0-.8.8A1.474,1.474,0,0,0,12,8.5a1.508,1.508,0,0,0,.148.641l-5,5.008a.5.5,0,1,0,.7.7l5.008-5A1.508,1.508,0,0,0,13.5,10a1.474,1.474,0,0,0,.586-.117,1.492,1.492,0,0,0,.8-.8A1.47,1.47,0,0,0,15,8.5a1.519,1.519,0,0,0-.148-.641Z" fill="none"/><path d="M15.8,7.531A2.56,2.56,0,0,0,14.469,6.2,2.381,2.381,0,0,0,13.5,6a2.408,2.408,0,0,0-.973.2,2.563,2.563,0,0,0-.8.539,2.519,2.519,0,0,0-.535.793A2.419,2.419,0,0,0,11,8.5a2.592,2.592,0,0,0,.023.352L6.438,13.438a1.468,1.468,0,0,0-.324.488A1.5,1.5,0,0,0,6,14.5a1.47,1.47,0,0,0,.117.586,1.492,1.492,0,0,0,.8.8A1.47,1.47,0,0,0,7.5,16a1.5,1.5,0,0,0,.574-.113,1.468,1.468,0,0,0,.488-.324l4.586-4.586A2.592,2.592,0,0,0,13.5,11a2.419,2.419,0,0,0,.969-.2,2.519,2.519,0,0,0,.793-.535,2.563,2.563,0,0,0,.539-.8A2.408,2.408,0,0,0,16,8.5,2.381,2.381,0,0,0,15.8,7.531Zm-.918,1.555a1.492,1.492,0,0,1-.8.8A1.474,1.474,0,0,1,13.5,10a1.508,1.508,0,0,1-.641-.148l-5.008,5a.5.5,0,1,1-.7-.7l5-5.008A1.508,1.508,0,0,1,12,8.5a1.474,1.474,0,0,1,.117-.586,1.492,1.492,0,0,1,.8-.8A1.47,1.47,0,0,1,13.5,7a1.519,1.519,0,0,1,.641.148L13,8.289V9h.711l1.141-1.141A1.519,1.519,0,0,1,15,8.5,1.47,1.47,0,0,1,14.883,9.086Z" fill="#afb9c3"/><path d="M11,14.5a.507.507,0,0,1-.5.5h-.166l-.9.9a.749.749,0,0,0-.083.1H10.5a1.474,1.474,0,0,0,.586-.117,1.492,1.492,0,0,0,.8-.8A1.474,1.474,0,0,0,12,14.5V13.274l-1,1Z" fill="#afb9c3"/><path d="M1.5,15a.481.481,0,0,1-.352-.148A.48.48,0,0,1,1,14.5V1.5a.479.479,0,0,1,.148-.352A.479.479,0,0,1,1.5,1h9a.48.48,0,0,1,.352.148A.481.481,0,0,1,11,1.5V6.056a3.5,3.5,0,0,1,1-.706V1.5a1.47,1.47,0,0,0-.117-.586,1.492,1.492,0,0,0-.8-.8A1.474,1.474,0,0,0,10.5,0h-9A1.47,1.47,0,0,0,.914.117a1.492,1.492,0,0,0-.8.8A1.47,1.47,0,0,0,0,1.5v13a1.474,1.474,0,0,0,.117.586,1.492,1.492,0,0,0,.8.8A1.47,1.47,0,0,0,1.5,16H5.38a2.227,2.227,0,0,1-.356-1Z" fill="#afb9c3"/><path d="M4,12.726V11.683h.921l.875,0v-1H7.54V7.66h1.1V9.414l1-1V6.66H3v7.05H5.135a2.2,2.2,0,0,1,.523-.841,1.989,1.989,0,0,1,.195-.139l-.865,0ZM4,7.66H6.59V9.783H4.922v.9H4Z" fill="#afb9c3"/></g></g></svg>
