<!-- Copyright (c) Microsoft. All rights reserved. -->

<svg xmlns="http://www.w3.org/2000/svg" viewBox="-22254 -21413 16 16">
  <defs>
    <style>
      .cls-1 {
        fill: #6a737c;
      }
    </style>
  </defs>
  <g id="Group_3309" data-name="Group 3309" transform="translate(-22254 -21413)">
    <path id="Path_1739" data-name="Path 1739" class="cls-1" d="M16,4H14V6h2V7H14V9h2v1H14v2h2v1H14v1H13v2H12V14H10v2H9V14H7v2H6V14H4v2H3V14H2V13H0V12H2V10H0V9H2V7H0V6H2V4H0V3H2V2H3V0H4V2H6V0H7V2H9V0h1V2h2V0h1V2h1V3h2Zm-3,9V3H3V13Z"/>
  </g>
</svg>
