<!-- Copyright (c) Microsoft. All rights reserved. -->
<svg xmlns="http://www.w3.org/2000/svg" width="24" height="24" viewBox="0 0 24 24">
  <path transform="scale(0.0117,-0.0117) translate(2, -2050)" fill="#333" d="M891 754L574 264L891 264L891 140L424 140L424 255L742 745L442 745L442 869L891 869L891 754L891 754M814 1186L775 1334L547 1334L507 1186L362 1186L597 1913L725 1913L959 1186L814 1186L814 1186M657 1730L579 1448L744 1448L667 1730L657 1730L657 1730M1695 561L1784 471L1432 119L1080 471L1170 561L1369 363L1369 1914L1497 1914L1497 363L1695 561Z"/>
</svg>
