<!-- Copyright (c) Microsoft. All rights reserved. -->
<svg xmlns="http://www.w3.org/2000/svg" width="24" height="24" viewBox="0 0 24 24">
  <path transform="scale(0.0117,-0.0117) translate(2, -2050)" fill="#fff" d="M891 1798L574 1308L891 1308L891 1184L424 1184L424 1299L742 1789L442 1789L442 1913L891 1913L891 1798M1784 471L1432 119L1080 471L1170 561L1369 363L1369 1914L1497 1914L1497 363L1695 561L1784 471M814 140L775 288L547 288L507 140L362 140L597 867L725 867L959 140L814 140M657 684L579 402L744 402L667 684L657 684Z"/>
</svg>
