<!-- Copyright (c) Microsoft. All rights reserved. -->

<svg xmlns="http://www.w3.org/2000/svg" viewBox="0 0 15.784 10.523"><title>Devices </title><g id="Layer_2" data-name="Layer 2"><g id="Random"><path d="M12.866,5.09H1V9.523H12.866V5.09Zm-4,2.217H7.875v1h-1v-1h.992v-1h1Z" fill="none"/><rect x="13.866" y="5.855" width="0.917" height="0.864" fill="none"/><path d="M15.784,0h-1V4.855h-.917V4.8a.709.709,0,0,0-.708-.708H.708A.709.709,0,0,0,0,4.8V9.815a.709.709,0,0,0,.708.708h12.45a.709.709,0,0,0,.708-.708V7.72h1.127a.791.791,0,0,0,.79-.79V5.646c0-.024-.012-.044-.014-.068h.014ZM12.866,9.523H1V5.09H12.866V9.523Zm1.917-2.8h-.917V5.855h.917Z" fill="#afb9c3"/><rect x="10.059" y="6.306" width="1" height="1" fill="#afb9c3"/><rect x="5.254" y="6.306" width="1" height="1" fill="#afb9c3"/><rect x="4.064" y="7.568" width="1" height="1" fill="#afb9c3"/><rect x="8.807" y="7.568" width="1" height="1" fill="#afb9c3"/><rect x="2.831" y="6.296" width="1" height="1" fill="#afb9c3"/></g></g></svg>
