<!-- Copyright (c) Microsoft. All rights reserved. -->

<svg xmlns="http://www.w3.org/2000/svg" viewBox="0 0 16 11"><title>Dashboard</title><g data-name="Layer 2"><g ><path d="M5,10H15V3H5ZM6,8.289,8.5,5.8l1,1L11.289,5H10V4h3V7H12V5.711L9.5,8.2l-1-1L6,9.711Z" fill="none"/><polygon points="4 6 1 6 1 10 4 10 4 5.5 4 5.5 4 6" fill="none"/><polygon points="1 5 4 5 4 5.5 4 5.5 4 3 1 3 1 5" fill="none"/><rect x="1" y="1" width="14" height="1" fill="none"/><polygon points="1 5 4 5 4 5.5 4 6 1 6 1 10 4 10 4 5.5 4 3 1 3 1 5" fill="none"/><path d="M5,10H15V3H5ZM6,8.289,8.5,5.8l1,1L11.289,5H10V4h3V7H12V5.711L9.5,8.2l-1-1L6,9.711Z" fill="none"/><rect x="1" y="1" width="14" height="1" fill="none"/><rect x="5" y="3" width="10" height="7" fill="none"/><polygon points="1 5 4 5 4 6 1 6 1 10 4 10 4 3 1 3 1 5" fill="none"/><rect x="1" y="1" width="14" height="1" fill="none"/><polygon points="1 5 4 5 4 6 1 6 1 10 4 10 4 3 1 3 1 5" fill="none"/><rect x="5" y="3" width="10" height="7" fill="none"/><rect x="1" y="1" width="14" height="1" fill="none"/><path d="M0,0V11H16V0ZM4,10H1V6H4V5H1V3H4Zm11,0H5V3H15Zm0-8H1V1H15Z"/><polygon points="9.5 8.203 12 5.711 12 7 13 7 13 4 10 4 10 5 11.289 5 9.5 6.797 8.5 5.797 6 8.289 6 9.711 8.5 7.203 9.5 8.203" fill="#afb9c3"/><line x1="4" y1="5.5" x2="4" y2="5.5" fill="none" stroke="#000" stroke-linecap="round" stroke-linejoin="round" stroke-width="0"/></g></g></svg>
