<!-- Copyright (c) Microsoft. All rights reserved. -->
<svg xmlns="http://www.w3.org/2000/svg" viewBox="0 0 13.359 16">
  <path id="E835" d="M13.808-16.072l-1.055.437a3.033,3.033,0,0,1,.086.737,3.033,3.033,0,0,1-.086.737l1.055.437L13.4-12.71l-1.063-.437A3.1,3.1,0,0,1,11.3-12.11l.437,1.063-1.012.412-.437-1.055a3.033,3.033,0,0,1-.737.086,3.033,3.033,0,0,1-.737-.086l-.437,1.055L7.36-11.047,7.8-12.11a3.1,3.1,0,0,1-1.038-1.038L5.7-12.71l-.412-1.012,1.055-.437a3.033,3.033,0,0,1-.086-.737,3.033,3.033,0,0,1,.086-.737l-1.055-.437L5.7-17.083l1.063.437A3.1,3.1,0,0,1,7.8-17.684L7.36-18.747l1.012-.412L8.809-18.1a3.033,3.033,0,0,1,.737-.086,3.033,3.033,0,0,1,.737.086l.437-1.055,1.012.412L11.3-17.684a3.1,3.1,0,0,1,1.038,1.038l1.063-.437.412,1.012M9.546-12.7a2.1,2.1,0,0,0,.849-.176,2.248,2.248,0,0,0,.7-.472,2.262,2.262,0,0,0,.472-.695,2.091,2.091,0,0,0,.176-.853,2.1,2.1,0,0,0-.176-.849,2.248,2.248,0,0,0-.472-.7,2.248,2.248,0,0,0-.7-.472,2.1,2.1,0,0,0-.849-.176,2.091,2.091,0,0,0-.853.176A2.262,2.262,0,0,0,8-16.445a2.248,2.248,0,0,0-.472.7,2.1,2.1,0,0,0-.176.849,2.091,2.091,0,0,0,.176.853A2.262,2.262,0,0,0,8-13.349a2.262,2.262,0,0,0,.695.472,2.091,2.091,0,0,0,.853.176m6.68,3.841L14.253-6.9l-.635-.635.772-.78H2.961V-12.7h1.1v3.293H14.391l-.772-.78.635-.635L16.226-8.86M4.839-18.97,2.866-20.933,4.839-22.9l.635.635-.772.78h11.43v4.39h-1.1v-3.293H4.7l.772.78Z" transform="translate(-2.866 22.897)"/>
</svg>
