<!-- Copyright (c) Microsoft. All rights reserved. -->

<svg xmlns="http://www.w3.org/2000/svg" viewBox="0 0 16 16"><title>Maintenance</title><g id="Layer_2" data-name="Layer 2"><g id="Random"><path d="M9.422,8.875q-.031.07-.145.3T9.016,9.7q-.149.3-.32.645t-.316.633q-.145.293-.246.492t-.117.223a3.669,3.669,0,0,1-.289.34c-.094.1-.187.188-.281.273s-.19.173-.289.262-.206.19-.32.3L4.477,15.234a2.562,2.562,0,0,1-.855.57,2.639,2.639,0,0,1-1,.2A2.517,2.517,0,0,1,1.6,15.793,2.646,2.646,0,0,1,.207,14.4,2.517,2.517,0,0,1,0,13.383a2.639,2.639,0,0,1,.2-1,2.562,2.562,0,0,1,.57-.855l6.3-6.3a2.392,2.392,0,0,1-.051-.363Q7,4.68,7,4.5a4.349,4.349,0,0,1,.355-1.75A4.525,4.525,0,0,1,9.75.355,4.355,4.355,0,0,1,11.5,0a4.272,4.272,0,0,1,.777.066,4.006,4.006,0,0,1,.684.191,6.072,6.072,0,0,1,.648.293q.32.168.672.371L11.2,4l.8.8,3.078-3.078q.2.352.371.672a6.072,6.072,0,0,1,.293.648,4.006,4.006,0,0,1,.191.684A4.272,4.272,0,0,1,16,4.5a4.5,4.5,0,0,1-.7,2.406,4.515,4.515,0,0,1-.812.957,4.284,4.284,0,0,1-1.07.7l-.445-.9a3.476,3.476,0,0,0,.84-.547,3.637,3.637,0,0,0,.637-.734,3.324,3.324,0,0,0,.406-.883A3.513,3.513,0,0,0,15,4.5a3.288,3.288,0,0,0-.187-1.1L12,6.2,9.8,4l2.8-2.812A3.288,3.288,0,0,0,11.5,1a3.381,3.381,0,0,0-1.363.277A3.528,3.528,0,0,0,8.277,3.137,3.375,3.375,0,0,0,8,4.5a2.962,2.962,0,0,0,.047.531q.047.258.109.516l-6.68,6.688a1.62,1.62,0,0,0-.352.523A1.593,1.593,0,0,0,1,13.383a1.552,1.552,0,0,0,.129.625,1.628,1.628,0,0,0,.863.863A1.552,1.552,0,0,0,2.617,15a1.593,1.593,0,0,0,.625-.125,1.62,1.62,0,0,0,.523-.352ZM11.5,7,16,16H7Zm3.086,8.125L11.5,8.953,8.414,15.125ZM11,11h1v2.5H11Zm0,3h1v1H11Z" fill="#afb9c3"/></g></g></svg>
