<!-- Copyright (c) Microsoft. All rights reserved. -->

<svg xmlns="http://www.w3.org/2000/svg" viewBox="0 0 15.636 15.72"><title>Rules</title><g data-name="Layer 2"><g><rect x="7.74" y="1" width="1.58" height="1.58" fill="none"/><rect x="2.29" y="11.85" width="1.346" height="2.87" fill="none"/><rect x="1" y="6.16" width="2.87" height="1.58" fill="none"/><path d="M13.288,4.945,9.353,8.88v0h0l-.97.97-.279,1.4,1.4-.279,4.91-4.91a.79.79,0,0,0-1.117-1.117Z" fill="none"/><path d="M15.112,4.238a1.791,1.791,0,0,0-2.531,0L9.353,7.466V6.45H4.87V5.16H2.935V2.29H6.74V3.58h3.58V0H6.74V1.29H1.935V5.16H0V8.74H4.87V7.45H8.353V8.466l-.9.9-.633,3.164L8.44,12.2V13.43h-3.8V10.85H1.29v4.87H4.636V14.43h4.8V12l.548-.11,5.124-5.124A1.792,1.792,0,0,0,15.112,4.238ZM7.74,1H9.32V2.58H7.74ZM3.87,7.74H1V6.16H3.87Zm-.234,6.98H2.29V11.85H3.636Zm10.77-8.658L9.5,10.972l-1.4.279.279-1.4.97-.97h0v0l3.936-3.936a.79.79,0,0,1,1.117,1.117Z" fill="#afb9c3"/></g></g></svg>
