<!-- Copyright (c) Microsoft. All rights reserved. -->

<svg xmlns="http://www.w3.org/2000/svg" viewBox="-23117 -8973.186 24.766 14.449">
  <defs>
    <style>
      .cls-1 {
        fill: #afb9c3;
      }

      .cls-2 {
        fill: #121416;
        stroke: #afb9c3;
        stroke-miterlimit: 10;
      }
    </style>
  </defs>
  <g id="Group_646" data-name="Group 646" transform="translate(-23117 -8973.186)">
    <g id="Group_638" data-name="Group 638">
      <path id="Path_978" data-name="Path 978" class="cls-1" d="M22.034,5.249,10.989,0,0,5.249,4.135,7.2,0,9.2l10.989,5.249L22.034,9.2,17.9,7.252Zm-18.976,0,7.93-3.788,7.93,3.788-7.93,3.788ZM18.976,9.2l-7.93,3.788L3.115,9.2,5.721,7.955,11.045,10.5,16.37,7.955Z"/>
    </g>
    <ellipse id="Ellipse_264" data-name="Ellipse 264" class="cls-1" cx="1.699" cy="0.812" rx="1.699" ry="0.812" transform="translate(13.085 4.329)"/>
    <path id="Path_980" data-name="Path 980" class="cls-2" d="M37.053,12.782l-5.041.974a.36.36,0,0,1-.453-.325L30.2,6.775A12.885,12.885,0,0,1,32.578,3.8a14.183,14.183,0,0,1,3.4,1.84L37.336,12.3A.365.365,0,0,1,37.053,12.782Z" transform="translate(-13.093 -1.743)"/>
    <path id="Path_983" data-name="Path 983" class="cls-1" d="M1.131.01A1.132,1.132,0,0,1,2.272,1.1,1.085,1.085,0,0,1,1.15,2.178,1.132,1.132,0,0,1,.01,1.084,1.085,1.085,0,0,1,1.131.01Z" transform="translate(18.612 4.021) rotate(-11.256)"/>
    <path id="Path_979" data-name="Path 979" class="cls-1" d="M27.419,5.388,26.1,5.334C26.1,5.172,26.34,1,29.337.9a2.559,2.559,0,0,1,2.458,1.3,3.12,3.12,0,0,1,0,3.085l-1.079-.7a1.913,1.913,0,0,0-.12-1.786,1.315,1.315,0,0,0-1.259-.649C27.658,2.141,27.419,5.334,27.419,5.388Z" transform="translate(-11.316 -0.409)"/>
  </g>
</svg>
