<!-- Copyright (c) Microsoft. All rights reserved. --> 

<svg xmlns="http://www.w3.org/2000/svg" viewBox="0 0 15.863 14.865"><title>Tag</title><g id="Layer_2" data-name="Layer 2"><g id="Random"><polygon points="12.1 7.378 10.42 6.377 7.026 8.4 3.633 6.377 1.953 7.378 7.026 10.401 12.1 7.378" fill="none"/><path d="M12.1,4.212,9.871,2.884a3.358,3.358,0,0,0-.09.614v.637a.5.5,0,0,1-1,0V3.49a3.967,3.967,0,0,1,.2-1.135L7.026,1.189,1.953,4.212,7.026,7.236Z" fill="none"/><polygon points="9.539 12.201 9.551 12.197 12.1 10.678 10.308 9.61 7.026 11.565 3.745 9.61 1.953 10.678 7.026 13.701 9.53 12.209 9.539 12.201" fill="none"/><path d="M12.292,1a2.263,2.263,0,0,0-2.013.963l3.775,2.249L11.4,5.8l2.656,1.583-2.768,1.65,2.768,1.65-3.5,2.087a2.365,2.365,0,0,0,1.76.666,2.524,2.524,0,0,0,2.542-2.567l.01-7.364A2.5,2.5,0,0,0,12.292,1Z" fill="none"/><path d="M12.292,0A3.22,3.22,0,0,0,9.419,1.451L7.026.025,0,4.212,2.656,5.8,0,7.378l2.768,1.65L0,10.678l7.026,4.188,2.644-1.576a3.271,3.271,0,0,0,2.641,1.141,3.5,3.5,0,0,0,3.541-3.549l.01-7.4A3.484,3.484,0,0,0,12.292,0ZM7.026,1.189,8.982,2.355a3.967,3.967,0,0,0-.2,1.135v.646a.5.5,0,0,0,1,0V3.5a3.358,3.358,0,0,1,.09-.614L12.1,4.212,7.026,7.236,1.953,4.212ZM3.633,6.377,7.026,8.4,10.42,6.377l1.679,1L7.026,10.4,1.953,7.378Zm-1.679,4.3L3.745,9.61l3.281,1.955L10.308,9.61,12.1,10.678,9.551,12.2l-.012,0-.008.008L7.026,13.7Zm12.9.186a2.524,2.524,0,0,1-2.542,2.567,2.365,2.365,0,0,1-1.76-.666l3.5-2.087-2.768-1.65,2.768-1.65L11.4,5.8l2.656-1.583L10.278,1.963A2.263,2.263,0,0,1,12.292,1a2.5,2.5,0,0,1,2.572,2.5Z" fill="#afb9c3"/></g></g></svg>
