<!-- Copyright (c) Microsoft. All rights reserved. -->

<svg xmlns="http://www.w3.org/2000/svg" viewBox="0 0 16 16"><title>Time range</title><g id="Layer_2" data-name="Layer 2"><g id="Random"><path d="M8,16a7.853,7.853,0,0,1-2.129-.285,8.087,8.087,0,0,1-1.91-.8A7.985,7.985,0,0,1,1.09,12.039a8.064,8.064,0,0,1-.8-1.914,8.06,8.06,0,0,1,0-4.25,8.073,8.073,0,0,1,.8-1.914A7.985,7.985,0,0,1,3.961,1.09a8.1,8.1,0,0,1,1.914-.8,8.06,8.06,0,0,1,4.25,0,8.113,8.113,0,0,1,1.914.8A7.985,7.985,0,0,1,14.91,3.961a8.113,8.113,0,0,1,.8,1.914,8.075,8.075,0,0,1,0,4.254,8.128,8.128,0,0,1-.8,1.91,7.985,7.985,0,0,1-2.871,2.871,8.073,8.073,0,0,1-1.914.8A7.869,7.869,0,0,1,8,16ZM8,1a6.867,6.867,0,0,0-1.855.25A7.029,7.029,0,0,0,1.25,6.145a7.011,7.011,0,0,0,0,3.711A7.029,7.029,0,0,0,6.145,14.75a7.011,7.011,0,0,0,3.711,0A7.029,7.029,0,0,0,14.75,9.855a7.011,7.011,0,0,0,0-3.711A7.029,7.029,0,0,0,9.855,1.25,6.869,6.869,0,0,0,8,1ZM8,8V3H7V9h4V8Z" fill="#afb9c3"/></g></g></svg>
