<!-- Copyright (c) Microsoft. All rights reserved. -->
<svg xmlns="http://www.w3.org/2000/svg" viewBox="0 0 13 16"><title>Delete</title><g id="Layer_2" data-name="Layer 2"><g id="Random"><path d="M8.98,2V1A.976.976,0,0,0,8.9.609,1.018,1.018,0,0,0,8.371.078.881.881,0,0,0,8,0H5.02a.974.974,0,0,0-.391.078A1.018,1.018,0,0,0,4.1.609.967.967,0,0,0,4.02,1V2H0V3H13V2Zm-1,0H5.02V1H7.98Z" /><path d="M11,14.5a.507.507,0,0,1-.5.5h-8a.507.507,0,0,1-.5-.5V4H1V14.5a1.47,1.47,0,0,0,.117.586,1.492,1.492,0,0,0,.8.8A1.47,1.47,0,0,0,2.5,16h8a1.474,1.474,0,0,0,.586-.117,1.492,1.492,0,0,0,.8-.8A1.47,1.47,0,0,0,12,14.5V4H11Z" /><rect x="6" y="5.5" width="1" height="7.5" /><rect x="4" y="5.5" width="1" height="7.5" /><rect x="8" y="5.5" width="1" height="7.5" /></g></g></svg>