<!-- Copyright (c) Microsoft. All rights reserved. -->

<svg xmlns="http://www.w3.org/2000/svg" viewBox="-18816 -21308 13.066 16">
  <defs>
    <style>
      .cls-1 {
        fill: #ccc;
      }
    </style>
  </defs>
  <g id="Group_819" data-name="Group 819" transform="translate(-18816 -21308)">
    <path id="Path_1016" data-name="Path 1016" class="cls-1" d="M13.067,2.933H12V14.4c0,.267,0,.4-.133.533s-.133.4-.267.533a.693.693,0,0,1-.533.267c-.267,0-.4.267-.533.267h-8c-.267,0-.4,0-.533-.133s-.4-.133-.533-.267a.693.693,0,0,1-.267-.533c0-.267-.133-.4-.133-.533V2.933H0V2H4V1.067a.49.49,0,0,1,.133-.4C4.267.533,4.267.4,4.4.4s.133-.133.267-.267S4.8,0,5.067,0H8a.49.49,0,0,1,.4.133c.133.133.267.133.267.267s.133.133.267.267a.49.49,0,0,1,.133.4V2.133h4v.8Zm-2.133,0H2V14.4a.471.471,0,0,0,.533.533h8a.471.471,0,0,0,.533-.533V2.933ZM5.067,13.067H4v-8H5.067ZM5.067,2H8V1.067H5.067ZM6.933,13.067H6v-8H7.067v8Zm2.133,0H8v-8H9.067Z"/>
  </g>
</svg>
